<svg xmlns="http://www.w3.org/2000/svg" fill="none" viewBox="13.72860962566845 26.596 123.1216577540107 82.622" style="max-height: 500px" width="123.1216577540107" height="82.622">
<g clip-path="url(#clip0_8642_2347)">
<path stroke-linejoin="round" stroke-linecap="round" stroke-width="14.5833" stroke="#DCDCDC" d="M24.458 87.5007L75.4997 36.459L126.541 87.5007"/>
<path stroke-linejoin="round" stroke-linecap="round" stroke-width="14.5833" stroke="#DCDCDC" d="M75.5 138.542V36.459"/>
<g filter="url(#filter0_d_8642_2347)">
<rect shape-rendering="crispEdges" fill-opacity="0.85" fill="white" rx="11" height="22" width="113" x="19"/>
<path fill="black" d="M31.6317 13.6084C30.2658 13.6084 29.019 13.088 28.542 11.7438L29.2575 11.115C29.5936 12.2967 30.7211 12.7195 31.6317 12.7195C32.4448 12.7195 33.1278 12.4051 33.1278 11.6137C33.1278 10.7789 32.4881 10.573 31.5233 10.3453L30.8403 10.1935C29.8755 9.9767 28.7805 9.54307 28.7805 8.17711C28.7805 6.85452 29.9297 6.13902 31.1981 6.13902C32.5098 6.13902 33.5505 6.71359 33.995 7.79768L33.2036 8.42645C32.8567 7.43993 32.1195 7.03882 31.1764 7.03882C30.3742 7.03882 29.7779 7.43993 29.7779 8.11207C29.7779 8.83841 30.3091 9.10943 31.1439 9.31541L31.9353 9.51055C32.9651 9.75989 34.0926 10.161 34.0926 11.592C34.0926 12.8495 33.041 13.6084 31.6317 13.6084ZM36.5568 13.6084C35.5269 13.6084 34.8873 12.9905 34.8873 11.8847V8.253H35.8196V11.657C35.8196 12.3292 36.0906 12.817 36.9796 12.817C37.9986 12.817 38.3672 12.1015 38.3672 11.2342V8.253H39.2995V13.5H38.3672V12.069C38.1721 12.8929 37.6083 13.6084 36.5568 13.6084ZM41.2415 13.5H40.2983V8.253H41.2415V9.65148C41.4475 8.83841 41.9895 8.13375 42.8785 8.13375C43.4422 8.13375 43.9842 8.53486 43.9842 9.27205C43.9842 9.71652 43.865 10.0417 43.7783 10.1718H42.7484C42.9218 10.0201 43.0628 9.69484 43.0628 9.40214C43.0628 9.09859 42.9002 8.83841 42.5207 8.83841C41.8486 8.83841 41.2415 9.6298 41.2415 10.5296V13.5ZM55.1331 13.5H54.1899V8.253H55.1331V9.65148C55.3391 8.83841 55.9028 8.14459 56.9327 8.14459C57.9626 8.14459 58.6022 8.76252 58.6022 9.87914V13.5H57.6699V10.1068C57.6699 9.42382 57.3989 8.94682 56.5099 8.94682C55.5017 8.94682 55.1331 9.65148 55.1331 10.5296V13.5ZM60.5116 7.40741H59.5685V6.23659H60.5116V7.40741ZM60.5116 13.5H59.5685V8.253H60.5116V13.5ZM63.9349 13.5H62.7424L60.8452 8.253H61.8643L62.905 11.3643L63.3603 12.8062L63.8048 11.3643L64.8347 8.253H65.8429L63.9349 13.5ZM68.1546 13.6084C66.6694 13.6084 65.6395 12.546 65.6395 10.8765C65.6395 9.21784 66.6586 8.14459 68.1004 8.14459C69.5856 8.14459 70.4854 9.13111 70.4854 10.6705C70.4854 10.8331 70.4638 10.9957 70.4421 11.0933H66.5502C66.6044 12.1991 67.2223 12.8279 68.1546 12.8279C69.2062 12.8279 69.629 12.2533 69.835 11.798L70.4096 12.4484C70.0193 13.0772 69.2929 13.6084 68.1546 13.6084ZM68.1004 8.93598C67.2548 8.93598 66.6911 9.43466 66.5719 10.4103H69.6398C69.5423 9.4455 68.9786 8.93598 68.1004 8.93598ZM72.3629 13.6084C71.4739 13.6084 70.9752 13.0989 70.9752 12.4051C70.9752 11.7004 71.5064 11.2559 72.2545 10.9199L74.1516 10.0743C74.1191 9.45634 73.8264 9.00102 73.0025 9.00102C72.2545 9.00102 71.7558 9.43466 71.4847 10.0092L70.8451 9.34793C71.1595 8.80589 71.9401 8.14459 73.1109 8.14459C74.401 8.14459 75.0948 8.9143 75.0948 10.161V12.3183C75.0948 12.5677 75.1923 12.6436 75.3875 12.6436H75.7235V13.5H75.1165C74.5744 13.5 74.1841 13.2398 74.1841 12.5026V12.134C74.0107 12.8279 73.447 13.6084 72.3629 13.6084ZM71.9292 12.2533C71.9292 12.611 72.1786 12.8279 72.6664 12.8279C73.5554 12.8279 74.1841 12.2425 74.1841 11.4836V10.7572L72.6556 11.4727C72.1569 11.7112 71.9292 11.9281 71.9292 12.2533ZM78.019 13.6084C76.9891 13.6084 76.3495 12.9905 76.3495 11.8847V8.253H77.2818V11.657C77.2818 12.3292 77.5529 12.817 78.4418 12.817C79.4609 12.817 79.8295 12.1015 79.8295 11.2342V8.253H80.7618V13.5H79.8295V12.069C79.6343 12.8929 79.0706 13.6084 78.019 13.6084ZM81.9295 13.5H80.8454L82.7209 10.8548L80.9755 8.253H82.0596L83.4256 10.367L84.8241 8.253H85.9082L84.0544 10.8223L85.8323 13.5H84.7373L83.8592 12.134L83.3497 11.3643L82.8402 12.134L81.9295 13.5ZM89.3035 13.6084C88.4145 13.6084 87.9158 13.0989 87.9158 12.4051C87.9158 11.7004 88.447 11.2559 89.1951 10.9199L91.0922 10.0743C91.0597 9.45634 90.767 9.00102 89.9431 9.00102C89.1951 9.00102 88.6964 9.43466 88.4254 10.0092L87.7858 9.34793C88.1001 8.80589 88.8807 8.14459 90.0515 8.14459C91.3416 8.14459 92.0354 8.9143 92.0354 10.161V12.3183C92.0354 12.5677 92.133 12.6436 92.3281 12.6436H92.6642V13.5H92.0571C91.515 13.5 91.1248 13.2398 91.1248 12.5026V12.134C90.9513 12.8279 90.3876 13.6084 89.3035 13.6084ZM88.8698 12.2533C88.8698 12.611 89.1192 12.8279 89.607 12.8279C90.496 12.8279 91.1248 12.2425 91.1248 11.4836V10.7572L89.5962 11.4727C89.0975 11.7112 88.8698 11.9281 88.8698 12.2533ZM94.9596 13.6084C93.9298 13.6084 93.2901 12.9905 93.2901 11.8847V8.253H94.2225V11.657C94.2225 12.3292 94.4935 12.817 95.3824 12.817C96.4015 12.817 96.7701 12.1015 96.7701 11.2342V8.253H97.7024V13.5H96.7701V12.069C96.5749 12.8929 96.0112 13.6084 94.9596 13.6084ZM100.309 13.6193C99.4528 13.6193 98.8457 13.0555 98.8457 12.1557V8.99018H98.0001V8.253H98.8457V7.58086L99.7888 6.88705V8.253H101.513V8.99018H99.7888V11.8739C99.7888 12.546 100.103 12.7086 100.515 12.7086C100.981 12.7086 101.307 12.3183 101.447 11.9931L101.762 12.9254C101.534 13.2832 101.036 13.6193 100.309 13.6193ZM103.991 13.6084C102.539 13.6084 101.52 12.5352 101.52 10.8765C101.52 9.21784 102.539 8.14459 103.991 8.14459C105.444 8.14459 106.474 9.21784 106.474 10.8765C106.474 12.5352 105.444 13.6084 103.991 13.6084ZM103.991 12.817C104.891 12.817 105.52 12.1991 105.52 10.8765C105.52 9.54307 104.891 8.93598 103.991 8.93598C103.102 8.93598 102.484 9.54307 102.484 10.8765C102.484 12.1991 103.102 12.817 103.991 12.817ZM108.168 13.5H107.224V8.253H108.168V9.65148C108.374 8.83841 108.916 8.13375 109.805 8.13375C110.368 8.13375 110.91 8.53486 110.91 9.27205C110.91 9.71652 110.791 10.0417 110.704 10.1718H109.674C109.848 10.0201 109.989 9.69484 109.989 9.40214C109.989 9.09859 109.826 8.83841 109.447 8.83841C108.775 8.83841 108.168 9.6298 108.168 10.5296V13.5ZM112.307 7.40741H111.364V6.23659H112.307V7.40741ZM112.307 13.5H111.364V8.253H112.307V13.5ZM115.33 13.6084C114.235 13.6084 113.237 13.1314 112.88 12.1557L113.563 11.6245C113.747 12.2208 114.321 12.817 115.362 12.817C115.98 12.817 116.392 12.5785 116.392 12.1124C116.392 11.6354 115.915 11.4836 115.297 11.3427L114.603 11.18C113.855 11.0066 113.042 10.6488 113.042 9.684C113.042 8.73 113.779 8.14459 114.918 8.14459C116.023 8.14459 116.793 8.73 117.086 9.42382L116.37 9.95502C116.11 9.33709 115.611 8.94682 114.863 8.94682C114.321 8.94682 113.931 9.18532 113.931 9.6298C113.931 10.096 114.278 10.2586 114.994 10.432L115.666 10.6055C116.847 10.8873 117.238 11.3752 117.238 12.1015C117.238 13.1423 116.349 13.6084 115.33 13.6084ZM120.35 7.57002H119.461L120.35 6.2908H121.586L120.35 7.57002ZM120.025 13.6084C118.539 13.6084 117.509 12.546 117.509 10.8765C117.509 9.21784 118.529 8.14459 119.97 8.14459C121.456 8.14459 122.355 9.13111 122.355 10.6705C122.355 10.8331 122.334 10.9957 122.312 11.0933H118.42C118.474 12.1991 119.092 12.8279 120.025 12.8279C121.076 12.8279 121.499 12.2533 121.705 11.798L122.279 12.4484C121.889 13.0772 121.163 13.6084 120.025 13.6084ZM119.97 8.93598C119.125 8.93598 118.561 9.43466 118.442 10.4103H121.51C121.412 9.4455 120.848 8.93598 119.97 8.93598Z"/>
<path fill="#0F8D6D" d="M51.4602 13.5H46.5167V12.7628L48.8909 10.4212C49.6822 9.64064 50.3002 8.9685 50.3002 8.16627C50.3002 7.58086 49.9749 7.03882 49.151 7.03882C47.9369 7.03882 47.2539 7.81936 47.4382 9.2612L46.5601 8.70832C46.4083 7.27732 47.5466 6.12818 49.2161 6.12818C50.6362 6.12818 51.2759 6.98461 51.2759 8.10123C51.2759 9.29373 50.1376 10.3778 49.4763 11.0066L48.3488 12.069L47.5683 12.7303L48.4572 12.6652H51.4602V13.5Z"/>
</g>
</g>
<defs>
<filter color-interpolation-filters="sRGB" filterUnits="userSpaceOnUse" height="79.8182" width="170.818" y="-18.0682" x="-9.90909" id="filter0_d_8642_2347">
<feFlood result="BackgroundImageFix" flood-opacity="0"/>
<feColorMatrix result="hardAlpha" values="0 0 0 0 0 0 0 0 0 0 0 0 0 0 0 0 0 0 127 0" type="matrix" in="SourceAlpha"/>
<feOffset dy="10.8409"/>
<feGaussianBlur stdDeviation="14.4545"/>
<feComposite operator="out" in2="hardAlpha"/>
<feColorMatrix values="0 0 0 0 0.85098 0 0 0 0 0.85098 0 0 0 0 0.85098 0 0 0 0.48 0" type="matrix"/>
<feBlend result="effect1_dropShadow_8642_2347" in2="BackgroundImageFix" mode="normal"/>
<feBlend result="shape" in2="effect1_dropShadow_8642_2347" in="SourceGraphic" mode="normal"/>
</filter>
<clipPath id="clip0_8642_2347">
<rect transform="translate(-12)" fill="white" height="175" width="175"/>
</clipPath>
</defs>
</svg>