<svg width="81" height="36" viewBox="0 0 81 36" fill="none" xmlns="http://www.w3.org/2000/svg">
<path d="M26.7188 11.9699V1.45159H29.1687L32.836 11.1735H33.0314V1.45159H34.2789V11.9699H31.829L28.1767 2.23295H27.9662V11.9699H26.7188ZM40.1416 12.1802C39.4001 12.1802 38.7438 12.0249 38.1727 11.7144C37.6115 11.4039 37.1706 10.9682 36.85 10.4072C36.5393 9.83616 36.3841 9.16502 36.3841 8.39366V8.19832C36.3841 7.43702 36.5393 6.77084 36.85 6.19984C37.1706 5.62885 37.6115 5.18806 38.1727 4.87755C38.7438 4.56701 39.4001 4.41174 40.1416 4.41174C40.883 4.41174 41.5344 4.56701 42.0955 4.87755C42.6667 5.18806 43.1075 5.62885 43.4182 6.19984C43.7388 6.77084 43.8991 7.43702 43.8991 8.19832V8.39366C43.8991 9.16502 43.7388 9.83616 43.4182 10.4072C43.1075 10.9682 42.6667 11.4039 42.0955 11.7144C41.5344 12.0249 40.883 12.1802 40.1416 12.1802ZM40.1416 11.1134C40.9131 11.1134 41.5344 10.8679 42.0053 10.3771C42.4762 9.87621 42.7118 9.20507 42.7118 8.3636V8.22837C42.7118 7.38691 42.4762 6.72072 42.0053 6.2299C41.5444 5.729 40.9232 5.47859 40.1416 5.47859C39.36 5.47859 38.7337 5.729 38.2628 6.2299C37.8019 6.72072 37.5715 7.38691 37.5715 8.22837V8.3636C37.5715 9.20507 37.8019 9.87621 38.2628 10.3771C38.7337 10.8679 39.36 11.1134 40.1416 11.1134ZM49.4176 12.1802C48.7062 12.1802 48.0649 12.03 47.4937 11.7295C46.9327 11.4189 46.4867 10.9832 46.156 10.4222C45.8355 9.85119 45.6751 9.16998 45.6751 8.37863V8.21334C45.6751 7.42199 45.8355 6.74582 46.156 6.18482C46.4867 5.61383 46.9327 5.17807 47.4937 4.87755C48.0649 4.56701 48.7062 4.41174 49.4176 4.41174C50.119 4.41174 50.7152 4.54697 51.2062 4.81744C51.7072 5.07792 52.098 5.42352 52.3785 5.85424C52.6691 6.27497 52.8545 6.73079 52.9346 7.22162L51.7773 7.46204C51.7072 6.9211 51.4817 6.45529 51.101 6.06461C50.7202 5.67393 50.1641 5.47859 49.4326 5.47859C48.9417 5.47859 48.5007 5.58881 48.11 5.80917C47.7292 6.02952 47.4236 6.34507 47.1931 6.75581C46.9727 7.16655 46.8625 7.65738 46.8625 8.22837V8.3636C46.8625 8.9346 46.9727 9.42542 47.1931 9.83616C47.4236 10.2469 47.7292 10.5624 48.11 10.7828C48.5007 11.0032 48.9417 11.1134 49.4326 11.1134C50.1641 11.1134 50.7202 10.9231 51.101 10.5424C51.4917 10.1617 51.7322 9.69093 51.8224 9.12993L52.9947 9.38538C52.8846 9.87621 52.6841 10.3371 52.3935 10.7678C52.103 11.1885 51.7072 11.5291 51.2062 11.7896C50.7152 12.05 50.119 12.1802 49.4176 12.1802ZM58.4155 12.1802C57.674 12.1802 57.0177 12.0249 56.4466 11.7144C55.8854 11.4039 55.4445 10.9682 55.1239 10.4072C54.8132 9.83616 54.658 9.16502 54.658 8.39366V8.19832C54.658 7.43702 54.8132 6.77084 55.1239 6.19984C55.4445 5.62885 55.8854 5.18806 56.4466 4.87755C57.0177 4.56701 57.674 4.41174 58.4155 4.41174C59.1569 4.41174 59.8083 4.56701 60.3694 4.87755C60.9406 5.18806 61.3814 5.62885 61.6921 6.19984C62.0127 6.77084 62.173 7.43702 62.173 8.19832V8.39366C62.173 9.16502 62.0127 9.83616 61.6921 10.4072C61.3814 10.9682 60.9406 11.4039 60.3694 11.7144C59.8083 12.0249 59.1569 12.1802 58.4155 12.1802ZM58.4155 11.1134C59.187 11.1134 59.8083 10.8679 60.2792 10.3771C60.7501 9.87621 60.9856 9.20507 60.9856 8.3636V8.22837C60.9856 7.38691 60.7501 6.72072 60.2792 6.2299C59.8183 5.729 59.1971 5.47859 58.4155 5.47859C57.6339 5.47859 57.0076 5.729 56.5367 6.2299C56.0758 6.72072 55.8454 7.38691 55.8454 8.22837V8.3636C55.8454 9.20507 56.0758 9.87621 56.5367 10.3771C57.0076 10.8679 57.6339 11.1134 58.4155 11.1134ZM67.4209 12.1802C66.7797 12.1802 66.1935 12.03 65.6624 11.7295C65.1414 11.4189 64.7256 10.9832 64.4149 10.4222C64.1043 9.86118 63.949 9.18501 63.949 8.39366V8.19832C63.949 7.41696 64.1043 6.74582 64.4149 6.18482C64.7256 5.61383 65.1414 5.17807 65.6624 4.87755C66.1935 4.56701 66.7797 4.41174 67.4209 4.41174C68.1825 4.41174 68.7736 4.55699 69.1945 4.84749C69.6153 5.12796 69.9159 5.43855 70.0963 5.77911H70.3067V1.45159H71.4941V11.9699H70.3368V10.7528H70.1264C69.926 11.1234 69.6153 11.4539 69.1945 11.7445C68.7736 12.035 68.1825 12.1802 67.4209 12.1802ZM67.7366 11.1284C68.4881 11.1284 69.1043 10.888 69.5853 10.4072C70.0662 9.91633 70.3067 9.23512 70.3067 8.3636V8.22837C70.3067 7.35685 70.0662 6.68068 69.5853 6.19984C69.1043 5.70902 68.4881 5.46356 67.7366 5.46356C66.9751 5.46356 66.3538 5.70902 65.8728 6.19984C65.3919 6.68068 65.1514 7.35685 65.1514 8.22837V8.3636C65.1514 9.23512 65.3919 9.91633 65.8728 10.4072C66.3639 10.888 66.9851 11.1284 67.7366 11.1284ZM77.3491 12.1802C76.6074 12.1802 75.9566 12.0249 75.3952 11.7144C74.8341 11.3938 74.3983 10.9481 74.0876 10.3771C73.777 9.80611 73.6217 9.14496 73.6217 8.39366V8.21334C73.6217 7.45204 73.777 6.78586 74.0876 6.21487C74.3983 5.64388 74.8291 5.20309 75.3802 4.89257C75.9314 4.57201 76.5623 4.41174 77.274 4.41174C77.9654 4.41174 78.5763 4.562 79.1077 4.86252C79.639 5.16304 80.0546 5.58881 80.3552 6.13974C80.6558 6.68068 80.8061 7.32177 80.8061 8.06308V8.60402H74.8241C74.8441 9.39537 75.0897 10.0165 75.5606 10.4673C76.0415 10.908 76.648 11.1284 77.3792 11.1284C78.0105 11.1284 78.4967 10.9881 78.8371 10.7077C79.1776 10.4171 79.4383 10.0666 79.6187 9.65585L80.6407 10.1517C80.4904 10.4622 80.2853 10.7728 80.0245 11.0833C79.7637 11.3938 79.418 11.6543 78.9874 11.8647C78.5568 12.0751 78.0105 12.1802 77.3491 12.1802ZM74.8391 7.62732H79.6036C79.5638 6.94612 79.3278 6.41524 78.8972 6.03456C78.4764 5.65387 77.9353 5.46356 77.274 5.46356C76.6029 5.46356 76.0513 5.65387 75.6207 6.03456C75.1898 6.41524 74.9293 6.94612 74.8391 7.62732Z" fill="#18181B"/>
<path d="M26.584 24.6986V14.1804H33.1972V15.9835H28.568V18.5229H32.8365V20.326H28.568V24.6986H26.584ZM36.8701 24.909C36.339 24.909 35.863 24.8188 35.4422 24.6385C35.0214 24.4482 34.6857 24.1778 34.4352 23.8271C34.1947 23.4665 34.0745 23.0307 34.0745 22.5198C34.0745 21.7485 34.345 21.1675 34.8861 20.7768C35.4272 20.3861 36.1186 20.1908 36.9602 20.1908H39.0043V19.7701C39.0043 19.4194 38.8942 19.1339 38.6737 18.9136C38.4533 18.6832 38.1025 18.568 37.6216 18.568C37.1507 18.568 36.7999 18.6782 36.5695 18.8986C36.339 19.1089 36.1887 19.3844 36.1186 19.725L34.3751 19.139C34.4953 18.7583 34.6857 18.4127 34.9462 18.1022C35.2167 17.7816 35.5725 17.5261 36.0133 17.3358C36.4642 17.1355 37.0104 17.0353 37.6516 17.0353C38.6336 17.0353 39.4101 17.2808 39.9813 17.7716C40.5524 18.2624 40.838 18.9737 40.838 19.9053V22.6851C40.838 22.9857 40.9783 23.1359 41.2589 23.1359H41.8601V24.6986H40.5975C40.2268 24.6986 39.9212 24.6085 39.6807 24.4282C39.4402 24.2479 39.32 24.0074 39.32 23.7069V23.6919H39.0344C38.9943 23.8121 38.9042 23.9723 38.7639 24.1727C38.6236 24.363 38.4031 24.5333 38.1025 24.6836C37.8019 24.8339 37.3912 24.909 36.8701 24.909ZM37.2007 23.3763C37.7318 23.3763 38.1626 23.2311 38.4933 22.9406C38.834 22.6401 39.0043 22.2443 39.0043 21.7535V21.6033H37.0955C36.7449 21.6033 36.4693 21.6784 36.2689 21.8286C36.0685 21.9789 35.9683 22.1893 35.9683 22.4597C35.9683 22.7302 36.0735 22.9506 36.2839 23.1209C36.4943 23.2912 36.7999 23.3763 37.2007 23.3763ZM46.5999 24.909C45.8785 24.909 45.2222 24.7587 44.631 24.4582C44.0499 24.1577 43.589 23.7219 43.2482 23.1509C42.9076 22.58 42.7372 21.8888 42.7372 21.0773V20.867C42.7372 20.0556 42.9076 19.3644 43.2482 18.7934C43.589 18.2224 44.0499 17.7866 44.631 17.4861C45.2222 17.1856 45.8785 17.0353 46.5999 17.0353C47.3114 17.0353 47.9226 17.1606 48.4336 17.411C48.9446 17.6614 49.3555 18.007 49.6661 18.4478C49.9867 18.8785 50.1972 19.3694 50.2973 19.9203L48.4637 20.311C48.4036 19.8602 48.2282 19.4846 47.9376 19.1841C47.6471 18.8735 47.2162 18.7182 46.645 18.7182C46.0739 18.7182 45.5929 18.9036 45.2021 19.2742C44.8214 19.6448 44.631 20.1858 44.631 20.897V21.0473C44.631 21.7485 44.8214 22.2894 45.2021 22.6701C45.5929 23.0407 46.0739 23.2261 46.645 23.2261C47.2162 23.2261 47.6471 23.0808 47.9376 22.7903C48.2382 22.4898 48.4287 22.0991 48.5088 21.6183L50.3424 22.054C50.2122 22.585 49.9867 23.0708 49.6661 23.5116C49.3555 23.9423 48.9446 24.2829 48.4336 24.5333C47.9226 24.7838 47.3114 24.909 46.5999 24.909ZM54.5255 24.6986C54.0345 24.6986 53.6337 24.5484 53.3231 24.2479C53.0225 23.9373 52.8722 23.5266 52.8722 23.0157V18.8084H51.0085V17.2457H52.8722V14.9317H54.766V17.2457H56.8101V18.8084H54.766V22.6851C54.766 22.9857 54.9063 23.1359 55.1869 23.1359H56.6298V24.6986H54.5255ZM61.8073 24.909C61.0657 24.909 60.3995 24.7587 59.8082 24.4582C59.217 24.1577 58.7511 23.7219 58.4104 23.1509C58.0698 22.58 57.8994 21.8938 57.8994 21.0924V20.8519C57.8994 20.0505 58.0698 19.3644 58.4104 18.7934C58.7511 18.2224 59.217 17.7866 59.8082 17.4861C60.3995 17.1856 61.0657 17.0353 61.8073 17.0353C62.5488 17.0353 63.215 17.1856 63.8063 17.4861C64.3975 17.7866 64.8634 18.2224 65.2041 18.7934C65.5447 19.3644 65.7151 20.0505 65.7151 20.8519V21.0924C65.7151 21.8938 65.5447 22.58 65.2041 23.1509C64.8634 23.7219 64.3975 24.1577 63.8063 24.4582C63.215 24.7587 62.5488 24.909 61.8073 24.909ZM61.8073 23.2261C62.3884 23.2261 62.8694 23.0407 63.2501 22.6701C63.6309 22.2894 63.8213 21.7485 63.8213 21.0473V20.897C63.8213 20.1958 63.6309 19.6599 63.2501 19.2892C62.8794 18.9085 62.3985 18.7182 61.8073 18.7182C61.2261 18.7182 60.7451 18.9085 60.3644 19.2892C59.9836 19.6599 59.7932 20.1958 59.7932 20.897V21.0473C59.7932 21.7485 59.9836 22.2894 60.3644 22.6701C60.7451 23.0407 61.2261 23.2261 61.8073 23.2261ZM67.4632 24.6986V17.2457H69.3269V18.0871H69.5974C69.7077 17.7866 69.888 17.5663 70.1385 17.426C70.3991 17.2857 70.6997 17.2156 71.0403 17.2156H71.9421V18.8986H71.0103C70.5293 18.8986 70.1335 19.0288 69.8229 19.2892C69.5123 19.5396 69.3569 19.9303 69.3569 20.4613V24.6986H67.4632ZM74.234 27.7039V26.051H78.292C78.5724 26.051 78.7129 25.9007 78.7129 25.6002V23.7219H78.4423C78.3221 23.9723 78.0966 24.2178 77.766 24.4582C77.4353 24.6986 76.9341 24.8188 76.263 24.8188C75.6819 24.8188 75.1709 24.6886 74.73 24.4282C74.2991 24.1577 73.9634 23.7871 73.723 23.3162C73.4825 22.8454 73.3622 22.3045 73.3622 21.6934V17.2457H75.256V21.5432C75.256 22.1042 75.3913 22.5249 75.6618 22.8053C75.9424 23.0858 76.3381 23.2261 76.8492 23.2261C77.4301 23.2261 77.881 23.0358 78.2019 22.6551C78.5228 22.2644 78.6828 21.7235 78.6828 21.0323V17.2457H80.5766V26.0209C80.5766 26.5318 80.4263 26.9375 80.1257 27.238C79.8251 27.5486 79.4246 27.7039 78.9233 27.7039H74.234Z" fill="#18181B"/>
<path d="M7.13089 10.2611C7.15499 10.4325 7.31883 10.576 7.53568 10.596C7.79108 10.6199 8.02239 10.4724 8.05612 10.2611C8.12359 9.81458 8.15732 9.36806 8.18141 8.92154C8.20551 8.47502 8.21514 8.0285 8.21033 7.58199C8.20551 7.13547 8.20069 6.68895 8.17659 6.24243C8.1525 5.79592 8.11877 5.3494 8.06094 4.90288C8.03685 4.73145 7.87301 4.58394 7.65134 4.56401C7.39594 4.54009 7.16463 4.69158 7.13572 4.90288C7.07789 5.3494 7.04416 5.79592 7.02006 6.24243C6.99597 6.68895 6.98633 7.13547 6.98633 7.58199C6.98633 8.0285 6.99115 8.47502 7.01524 8.92154C7.0297 9.36806 7.06343 9.81458 7.13089 10.2611Z" fill="#18181B"/>
<path d="M0.0144575 27.1861C0.0192764 27.2061 0.0240947 27.222 0.0289136 27.2419C0.0337325 27.2579 0.0385511 27.2698 0.0481888 27.2818C0.0578266 27.2978 0.0626455 27.3137 0.0722833 27.3296C0.081921 27.3456 0.0867399 27.3576 0.0963777 27.3695C0.106015 27.3855 0.120473 27.3974 0.13011 27.4134C0.144567 27.4253 0.154204 27.4373 0.168661 27.4492C0.183118 27.4612 0.197574 27.4732 0.21685 27.4851C0.226488 27.4931 0.236125 27.5011 0.240944 27.5051C0.245763 27.5091 0.255402 27.513 0.260221 27.517C0.274678 27.525 0.284315 27.529 0.298771 27.537C0.318047 27.5489 0.342141 27.5569 0.361416 27.5649C0.371054 27.5689 0.385511 27.5728 0.395149 27.5768C0.419244 27.5848 0.448157 27.5928 0.472252 27.5968C0.481889 27.6007 0.491527 27.6007 0.501165 27.6047C0.539716 27.6127 0.578267 27.6167 0.616818 27.6167H0.621637H14.2832H14.288C14.2976 27.6167 14.3121 27.6127 14.3217 27.6127C14.3506 27.6127 14.3844 27.6087 14.4181 27.6047C14.4326 27.6007 14.447 27.5968 14.4615 27.5928C14.4904 27.5848 14.5145 27.5808 14.5386 27.5689C14.5579 27.5649 14.5675 27.5569 14.5868 27.5489C14.6109 27.537 14.6301 27.529 14.6542 27.513C14.6687 27.5051 14.6831 27.4931 14.6976 27.4851C14.7169 27.4692 14.7361 27.4532 14.7554 27.4373C14.7651 27.4293 14.7699 27.4253 14.7795 27.4174L17.7335 24.2479C17.7383 24.2439 17.7383 24.2399 17.7431 24.2319C17.7576 24.216 17.7672 24.2 17.7769 24.1841C17.7865 24.1721 17.7961 24.1642 17.801 24.1522C17.801 24.1482 17.8058 24.1442 17.8058 24.1402C17.8154 24.1243 17.8202 24.1123 17.8251 24.0964C17.8299 24.0804 17.8395 24.0645 17.8443 24.0485C17.8443 24.0445 17.8491 24.0406 17.8491 24.0366C17.854 24.0246 17.854 24.0127 17.854 24.0007C17.8588 23.9808 17.8588 23.9648 17.8636 23.9449C17.8636 23.9369 17.8636 23.9329 17.8636 23.9289C17.8636 23.9249 17.8636 23.921 17.8636 23.917C17.8636 23.909 17.8636 23.905 17.8588 23.901C17.8588 23.8851 17.854 23.8651 17.854 23.8452C17.854 23.8372 17.8491 23.8293 17.8491 23.8213V23.8173L15.6517 15.8916C15.1602 14.1255 14.9144 12.3155 14.9144 10.5055V1.96186C14.9144 1.94591 14.9193 1.92598 14.9193 1.91004C14.9193 1.6509 14.6783 1.45156 14.3603 1.45156H0.616818C0.274677 1.45156 0 1.6788 0 1.96186V27.1024C0 27.1144 0.00481918 27.1263 0.00481918 27.1383C0.00963806 27.1582 0.00963865 27.1742 0.0144575 27.1861ZM13.9651 14.4006L16.2975 22.8047C16.389 23.1236 16.0903 23.4306 15.6951 23.4306H4.79961C4.36591 23.4306 3.99486 23.1834 3.89848 22.8366L1.56614 14.4325C1.4794 14.1135 1.77335 13.8065 2.1685 13.8065H13.064C13.4929 13.8065 13.8687 14.0537 13.9651 14.4006ZM1.23845 3.24162C1.23845 2.81902 1.65288 2.47615 2.16368 2.47615H12.7508C13.2616 2.47615 13.676 2.81902 13.676 3.24162V12.0205C13.676 12.4431 13.2616 12.7859 12.7508 12.7859H2.16368C1.65288 12.7859 1.23845 12.4431 1.23845 12.0205V3.24162Z" fill="#18181B"/>
<path fill-rule="evenodd" clip-rule="evenodd" d="M5.87434 16.3286C6.44793 15.829 7.27032 15.5591 8.18254 15.5591C8.25489 15.5591 8.3325 15.5635 8.41996 15.5685C8.43275 15.5692 8.44575 15.5699 8.45897 15.5706C10.7119 15.697 12.7298 17.3221 12.9648 19.1884C13.0684 20.044 12.7782 20.8135 12.1424 21.359C11.5688 21.8529 10.7533 22.1228 9.84112 22.1228H9.84105C9.74432 22.1228 9.65451 22.1228 9.55778 22.1171C7.30487 21.9907 5.28693 20.3656 5.05196 18.4993C4.94139 17.6437 5.23855 16.8742 5.87434 16.3286ZM6.81909 17.0742C7.21906 16.7274 7.79251 16.54 8.4286 16.54C8.47905 16.54 8.53317 16.543 8.59416 16.5465C8.60307 16.547 8.61214 16.5475 8.62135 16.548C10.1923 16.6357 11.5994 17.764 11.7633 19.0596C11.8356 19.6537 11.6332 20.1879 11.1898 20.5666C10.7899 20.9095 10.2212 21.0969 9.58513 21.0969H9.58508C9.51764 21.0969 9.45501 21.0969 9.38756 21.0929C7.8166 21.0052 6.40949 19.8769 6.24565 18.5812C6.16854 17.9872 6.37575 17.453 6.81909 17.0742Z" fill="#18181B"/>
</svg>
