<svg width="170" height="316" viewBox="0 0 170 316" fill="none" xmlns="http://www.w3.org/2000/svg">
<path d="M0.463859 40.0564C0.712077 60.5296 6.54519 77.4067 19.2043 95.3163L42.6857 129.462L42.6857 186.574L19.2043 220.719C6.54519 238.629 0.712083 255.47 0.463866 275.979L0.463867 316L42.6857 316L42.6857 188.033L127.427 188.033L127.427 127.967L42.6857 127.967L42.6857 2.78546e-05L0.463858 3.05176e-05L0.463859 40.0208L0.463859 40.0564Z" fill="#B2B2B2" fill-opacity="0.1"/>
<path d="M169.698 316L169.698 275.979C169.45 255.506 163.617 238.629 150.958 220.719L127.477 186.574L127.477 316L169.698 316Z" fill="#B2B2B2" fill-opacity="0.1"/>
<path d="M150.958 95.3245C163.617 77.4148 169.45 60.5734 169.698 40.0645L169.698 0.0437748L127.477 0.0437775L127.477 129.506L150.958 95.3601L150.958 95.3245Z" fill="#B2B2B2" fill-opacity="0.1"/>
</svg>
