<svg width="673" height="166" viewBox="0 0 673 166" fill="none" xmlns="http://www.w3.org/2000/svg">
<path d="M481.631 81.357H488.042V85.6907V150.696H188.882H184.608V147.807V81.357H481.631Z" fill="#4DCDA5"/>
<path d="M481.631 81.357H488.042V85.6907M481.631 81.357H184.608V147.807M481.631 81.357H503M488.042 85.6907V150.696H188.882M488.042 85.6907V68M184.608 147.807V150.696H188.882M184.608 147.807V166M188.882 150.696H170" stroke="#4DCDA5" stroke-width="5"/>
<path d="M96.424 57.512C83.24 57.512 75.816 47.848 75.816 35.496C75.816 23.144 83.24 13.48 96.424 13.48C105.896 13.48 112.424 18.344 115.432 26.728L109.16 31.336C107.816 24.872 103.848 20.328 96.488 20.328C87.656 20.328 83.496 26.6 83.496 35.496C83.496 44.328 87.656 50.664 96.488 50.664C103.848 50.664 107.816 46.056 109.16 39.656L115.432 44.264C112.424 52.584 105.896 57.512 96.424 57.512ZM134.271 57.64C125.311 57.64 119.167 51.112 119.167 41.448C119.167 31.72 125.311 25.192 134.271 25.192C143.359 25.192 149.503 31.72 149.503 41.448C149.503 51.112 143.359 57.64 134.271 57.64ZM134.335 51.688C139.007 51.688 142.207 48.616 142.207 41.448C142.207 34.216 139.007 31.144 134.335 31.144C129.727 31.144 126.527 34.216 126.527 41.448C126.527 48.616 129.727 51.688 134.335 51.688ZM162.819 57H155.651V25.832H162.819V34.344C163.971 29.416 167.043 25.192 172.931 25.192C178.627 25.192 181.699 28.52 182.019 34.408C183.107 29.48 186.179 25.192 192.131 25.192C198.083 25.192 201.219 28.84 201.219 35.304V57H194.051V37.48C194.051 33.192 192.259 31.016 188.035 31.016C183.811 31.016 182.019 34.408 182.019 39.528V57H174.851V37.48C174.851 33.192 173.059 31.016 168.835 31.016C164.611 31.016 162.819 34.408 162.819 39.528V57ZM215.757 57H208.589V25.832H215.757V34.344C216.909 29.416 219.981 25.192 225.869 25.192C231.565 25.192 234.637 28.52 234.957 34.408C236.045 29.48 239.117 25.192 245.069 25.192C251.021 25.192 254.157 28.84 254.157 35.304V57H246.989V37.48C246.989 33.192 245.197 31.016 240.972 31.016C236.749 31.016 234.957 34.408 234.957 39.528V57H227.789V37.48C227.789 33.192 225.997 31.016 221.773 31.016C217.549 31.016 215.757 34.408 215.757 39.528V57ZM275.225 57.64C265.945 57.64 259.865 51.176 259.865 41.448C259.865 31.656 265.945 25.192 274.713 25.192C284.057 25.192 289.241 31.4 289.241 40.04C289.241 41.192 289.113 42.536 288.985 43.176H266.713C267.097 48.744 270.361 51.752 275.289 51.752C280.729 51.752 283.161 48.936 284.313 46.312L288.729 50.92C286.361 54.504 282.137 57.64 275.225 57.64ZM274.713 30.952C270.297 30.952 267.353 33.512 266.777 38.568H282.777C282.265 33.64 279.449 30.952 274.713 30.952ZM302.694 57H295.526V25.832H302.694V34.344C303.846 29.416 307.046 25.192 313.254 25.192C319.334 25.192 323.046 28.84 323.046 35.304V57H315.814V37.48C315.814 33.64 314.534 31.016 309.734 31.016C304.486 31.016 302.694 34.408 302.694 39.528V57ZM343.78 57.64C334.5 57.64 328.676 51.112 328.676 41.448C328.676 31.72 334.5 25.192 343.78 25.192C351.588 25.192 356.516 29.608 358.18 35.496L351.716 38.696C351.012 34.216 348.708 31.208 343.908 31.208C338.98 31.208 335.972 34.856 335.972 41.448C335.972 47.976 338.98 51.624 343.908 51.624C348.772 51.624 351.012 48.616 351.716 44.136L358.18 47.336C356.516 53.224 351.588 57.64 343.78 57.64ZM376.975 57.64C367.695 57.64 361.615 51.176 361.615 41.448C361.615 31.656 367.695 25.192 376.463 25.192C385.807 25.192 390.991 31.4 390.991 40.04C390.991 41.192 390.863 42.536 390.735 43.176H368.463C368.847 48.744 372.111 51.752 377.039 51.752C382.479 51.752 384.911 48.936 386.063 46.312L390.479 50.92C388.111 54.504 383.887 57.64 376.975 57.64ZM376.463 30.952C372.047 30.952 369.103 33.512 368.527 38.568H384.527C384.015 33.64 381.199 30.952 376.463 30.952ZM421.379 57H393.859V51.432L407.875 35.816L412.483 31.592L405.187 31.976H395.011V25.832H420.739V31.4L406.723 46.568L401.795 51.24L409.859 50.92H421.379V57ZM457.232 57H448.08L437.008 25.832H444.944L450.256 42.792L452.816 52.328L455.312 42.792L460.56 25.832H468.368L457.232 57ZM483.896 57.64C474.936 57.64 468.792 51.112 468.792 41.448C468.792 31.72 474.936 25.192 483.896 25.192C492.984 25.192 499.128 31.72 499.128 41.448C499.128 51.112 492.984 57.64 483.896 57.64ZM483.96 51.688C488.632 51.688 491.832 48.616 491.832 41.448C491.832 34.216 488.632 31.144 483.96 31.144C479.352 31.144 476.152 34.216 476.152 41.448C476.152 48.616 479.352 51.688 483.96 51.688ZM515.978 57.704C510.09 57.704 506.698 53.992 506.698 48.488V31.4H501.834V25.832H506.698V22.056L513.866 17.512V25.832H523.402V31.4H513.866V46.76C513.866 50.152 515.466 50.984 517.578 50.984C520.01 50.984 521.802 49 522.698 47.208L524.938 53.608C523.594 55.592 520.522 57.704 515.978 57.704ZM535.569 57H528.401V25.832H535.569V34.664C536.721 29.672 539.857 25.192 545.425 25.192C549.329 25.192 552.209 27.752 552.209 32.36C552.209 35.368 551.377 37.608 550.801 38.568H543.441C544.465 37.544 545.425 35.496 545.425 33.704C545.425 31.976 544.593 30.568 542.481 30.568C538.897 30.568 535.569 34.664 535.569 39.848V57ZM570.038 57.64C560.758 57.64 554.678 51.176 554.678 41.448C554.678 31.656 560.758 25.192 569.526 25.192C578.87 25.192 584.054 31.4 584.054 40.04C584.054 41.192 583.926 42.536 583.798 43.176H561.526C561.91 48.744 565.174 51.752 570.102 51.752C575.542 51.752 577.974 48.936 579.126 46.312L583.542 50.92C581.174 54.504 576.95 57.64 570.038 57.64ZM569.526 30.952C565.11 30.952 562.166 33.512 561.59 38.568H577.59C577.078 33.64 574.262 30.952 569.526 30.952Z" fill="black"/>
<path d="M208.671 134.64C202.015 134.64 195.935 131.952 193.567 127.024L197.791 122.544C199.519 125.68 203.359 128.88 208.927 128.88C211.999 128.88 213.983 127.792 213.983 125.552C213.983 123.248 211.615 122.48 208.159 121.648L203.999 120.624C199.071 119.472 194.527 117.296 194.527 111.6C194.527 105.776 199.199 102.256 206.367 102.256C213.023 102.256 217.695 105.456 219.615 108.976L215.391 113.456C213.215 110 209.887 107.952 205.855 107.952C203.103 107.952 201.247 109.104 201.247 111.216C201.247 113.456 202.911 114.288 207.135 115.376L210.911 116.336C217.887 118.128 220.447 120.944 220.447 125.424C220.447 131.568 215.263 134.64 208.671 134.64ZM233.288 98.416H226.12V91.12H233.288V98.416ZM233.288 134H226.12V102.832H233.288V134ZM248.038 134H240.87V102.832H248.038V111.344C249.19 106.416 252.262 102.192 258.15 102.192C263.846 102.192 266.918 105.52 267.238 111.408C268.326 106.48 271.398 102.192 277.35 102.192C283.302 102.192 286.438 105.84 286.438 112.304V134H279.27V114.48C279.27 110.192 277.478 108.016 273.254 108.016C269.03 108.016 267.238 111.408 267.238 116.528V134H260.07V114.48C260.07 110.192 258.278 108.016 254.054 108.016C249.83 108.016 248.038 111.408 248.038 116.528V134ZM303.343 134.64C297.327 134.64 293.615 130.992 293.615 124.528V102.832H300.783V122.352C300.783 126.192 302.063 128.816 306.863 128.816C312.111 128.816 313.903 125.424 313.903 120.304V102.832H321.135V134H313.903V125.488C312.751 130.416 309.551 134.64 303.343 134.64ZM335.85 134H328.682V91.12H335.85V134ZM350.024 134.64C344.904 134.64 341.832 131.76 341.832 127.28C341.832 122.864 344.904 120.176 349.96 118.192L360.392 113.776C360.136 110.64 358.728 108.528 354.44 108.528C350.28 108.528 347.016 110.96 345.224 114.224L340.936 109.104C343.368 105.776 348.232 102.192 355.144 102.192C362.888 102.192 367.24 106.608 367.24 114.288V126C367.24 127.408 367.752 127.856 368.904 127.856H370.888V134H366.472C363.144 134 360.52 132.464 360.52 127.984V125.68C359.56 129.776 356.552 134.64 350.024 134.64ZM348.744 126.192C348.744 127.984 349.96 129.072 352.584 129.072C357.32 129.072 360.52 126.256 360.52 122.032V118.704L352.52 122.288C349.832 123.504 348.744 124.592 348.744 126.192ZM386.821 134.704C380.933 134.704 377.541 130.992 377.541 125.488V108.4H372.677V102.832H377.541V99.056L384.709 94.512V102.832H394.245V108.4H384.709V123.76C384.709 127.152 386.309 127.984 388.421 127.984C390.853 127.984 392.645 126 393.541 124.208L395.781 130.608C394.437 132.592 391.365 134.704 386.821 134.704ZM407.788 98.416H400.62V91.12H407.788V98.416ZM407.788 134H400.62V102.832H407.788V134ZM428.49 134.64C419.53 134.64 413.386 128.112 413.386 118.448C413.386 108.72 419.53 102.192 428.49 102.192C437.578 102.192 443.722 108.72 443.722 118.448C443.722 128.112 437.578 134.64 428.49 134.64ZM428.554 128.688C433.226 128.688 436.426 125.616 436.426 118.448C436.426 111.216 433.226 108.144 428.554 108.144C423.946 108.144 420.746 111.216 420.746 118.448C420.746 125.616 423.946 128.688 428.554 128.688ZM457.038 134H449.87V102.832H457.038V111.344C458.19 106.416 461.39 102.192 467.598 102.192C473.678 102.192 477.39 105.84 477.39 112.304V134H470.158V114.48C470.158 110.64 468.878 108.016 464.078 108.016C458.83 108.016 457.038 111.408 457.038 116.528V134Z" fill="#EBEBEB"/>
</svg>
