<svg width="752" height="166" viewBox="0 0 752 166" fill="none" xmlns="http://www.w3.org/2000/svg">
<path d="M521.567 81.357H527.997V85.6907V150.696H227.939H223.652V147.807V81.357H521.567Z" fill="#4DCDA5"/>
<path d="M521.567 81.357H527.997V85.6907M521.567 81.357H223.652V147.807M521.567 81.357H543M527.997 85.6907V150.696H227.939M527.997 85.6907V68M223.652 147.807V150.696H227.939M223.652 147.807V166M227.939 150.696H209" stroke="#4DCDA5" stroke-width="5"/>
<path d="M132.769 57H125.536V14.12H144.865C153.569 14.12 160.097 18.6 160.097 27.432C160.097 34.6 155.169 38.824 148.449 39.592C151.009 40.36 152.737 41.96 154.273 44.648L161.569 57H153.249L145.825 44.264C144.225 41.384 142.049 40.36 138.017 40.36H132.769V57ZM144.161 20.52H132.769V34.472H144.161C148.705 34.472 152.609 32.808 152.609 27.624C152.609 22.184 148.705 20.52 144.161 20.52ZM181.22 21.992H174.948L179.812 14.376H188.708L181.22 21.992ZM178.788 57.64C169.508 57.64 163.428 51.176 163.428 41.448C163.428 31.656 169.508 25.192 178.276 25.192C187.62 25.192 192.804 31.4 192.804 40.04C192.804 41.192 192.676 42.536 192.548 43.176H170.276C170.66 48.744 173.924 51.752 178.852 51.752C184.292 51.752 186.724 48.936 187.876 46.312L192.292 50.92C189.924 54.504 185.7 57.64 178.788 57.64ZM178.276 30.952C173.86 30.952 170.916 33.512 170.34 38.568H186.34C185.828 33.64 183.012 30.952 178.276 30.952ZM211.39 57.64C204.734 57.64 198.654 54.952 196.286 50.024L200.51 45.544C202.238 48.68 206.078 51.88 211.646 51.88C214.718 51.88 216.702 50.792 216.702 48.552C216.702 46.248 214.334 45.48 210.878 44.648L206.718 43.624C201.79 42.472 197.246 40.296 197.246 34.6C197.246 28.776 201.918 25.256 209.086 25.256C215.742 25.256 220.414 28.456 222.334 31.976L218.11 36.456C215.934 33 212.606 30.952 208.574 30.952C205.822 30.952 203.966 32.104 203.966 34.216C203.966 36.456 205.63 37.288 209.854 38.376L213.63 39.336C220.606 41.128 223.166 43.944 223.166 48.424C223.166 54.568 217.982 57.64 211.39 57.64ZM237.687 57.64C231.671 57.64 227.959 53.992 227.959 47.528V25.832H235.127V45.352C235.127 49.192 236.407 51.816 241.207 51.816C246.455 51.816 248.247 48.424 248.247 43.304V25.832H255.479V57H248.247V48.488C247.095 53.416 243.895 57.64 237.687 57.64ZM270.194 57H263.026V14.12H270.194V57ZM289.04 57.704C283.152 57.704 279.76 53.992 279.76 48.488V31.4H274.896V25.832H279.76V22.056L286.928 17.512V25.832H296.464V31.4H286.928V46.76C286.928 50.152 288.528 50.984 290.64 50.984C293.072 50.984 294.864 49 295.76 47.208L298 53.608C296.656 55.592 293.584 57.704 289.04 57.704ZM308.556 57.64C303.436 57.64 300.364 54.76 300.364 50.28C300.364 45.864 303.436 43.176 308.492 41.192L318.924 36.776C318.668 33.64 317.26 31.528 312.972 31.528C308.812 31.528 305.548 33.96 303.756 37.224L299.468 32.104C301.9 28.776 306.764 25.192 313.676 25.192C321.42 25.192 325.772 29.608 325.772 37.288V49C325.772 50.408 326.284 50.856 327.436 50.856H329.42V57H325.004C321.676 57 319.052 55.464 319.052 50.984V48.68C318.092 52.776 315.083 57.64 308.556 57.64ZM307.276 49.192C307.276 50.984 308.492 52.072 311.116 52.072C315.852 52.072 319.052 49.256 319.052 45.032V41.704L311.052 45.288C308.364 46.504 307.276 47.592 307.276 49.192ZM345.353 57.704C339.465 57.704 336.073 53.992 336.073 48.488V31.4H331.209V25.832H336.073V22.056L343.241 17.512V25.832H352.777V31.4H343.241V46.76C343.241 50.152 344.841 50.984 346.953 50.984C349.385 50.984 351.177 49 352.073 47.208L354.313 53.608C352.969 55.592 349.897 57.704 345.353 57.704ZM370.765 57.64C364.109 57.64 358.029 54.952 355.661 50.024L359.885 45.544C361.613 48.68 365.453 51.88 371.021 51.88C374.093 51.88 376.077 50.792 376.077 48.552C376.077 46.248 373.709 45.48 370.253 44.648L366.093 43.624C361.165 42.472 356.621 40.296 356.621 34.6C356.621 28.776 361.293 25.256 368.461 25.256C375.117 25.256 379.789 28.456 381.709 31.976L377.485 36.456C375.309 33 371.981 30.952 367.949 30.952C365.197 30.952 363.341 32.104 363.341 34.216C363.341 36.456 365.005 37.288 369.229 38.376L373.005 39.336C379.981 41.128 382.541 43.944 382.541 48.424C382.541 54.568 377.357 57.64 370.765 57.64ZM412.342 57.704C404.662 57.704 399.798 51.496 399.798 41.448C399.798 31.4 404.662 25.192 412.214 25.192C418.422 25.192 421.174 29.352 422.198 34.216V14.12H429.366V57H422.198V48.744C421.174 53.544 418.55 57.704 412.342 57.704ZM407.158 41.448C407.158 48.488 410.55 51.88 415.094 51.88C420.086 51.88 422.198 48.552 422.198 43.432V39.528C422.198 34.408 420.086 31.016 415.03 31.016C410.55 31.016 407.158 34.472 407.158 41.448ZM450.725 57.64C441.445 57.64 435.365 51.176 435.365 41.448C435.365 31.656 441.445 25.192 450.213 25.192C459.557 25.192 464.741 31.4 464.741 40.04C464.741 41.192 464.613 42.536 464.485 43.176H442.213C442.597 48.744 445.861 51.752 450.789 51.752C456.229 51.752 458.661 48.936 459.813 46.312L464.229 50.92C461.861 54.504 457.637 57.64 450.725 57.64ZM450.213 30.952C445.797 30.952 442.853 33.512 442.277 38.568H458.277C457.765 33.64 454.949 30.952 450.213 30.952ZM501.232 57H492.08L481.008 25.832H488.944L494.256 42.792L496.816 52.328L499.312 42.792L504.56 25.832H512.368L501.232 57ZM527.896 57.64C518.936 57.64 512.792 51.112 512.792 41.448C512.792 31.72 518.936 25.192 527.896 25.192C536.984 25.192 543.128 31.72 543.128 41.448C543.128 51.112 536.984 57.64 527.896 57.64ZM527.96 51.688C532.632 51.688 535.832 48.616 535.832 41.448C535.832 34.216 532.632 31.144 527.96 31.144C523.352 31.144 520.152 34.216 520.152 41.448C520.152 48.616 523.352 51.688 527.96 51.688ZM559.978 57.704C554.09 57.704 550.698 53.992 550.698 48.488V31.4H545.834V25.832H550.698V22.056L557.866 17.512V25.832H567.402V31.4H557.866V46.76C557.866 50.152 559.466 50.984 561.578 50.984C564.01 50.984 565.802 49 566.698 47.208L568.938 53.608C567.594 55.592 564.522 57.704 559.978 57.704ZM579.569 57H572.401V25.832H579.569V34.664C580.721 29.672 583.857 25.192 589.425 25.192C593.329 25.192 596.209 27.752 596.209 32.36C596.209 35.368 595.377 37.608 594.801 38.568H587.441C588.465 37.544 589.425 35.496 589.425 33.704C589.425 31.976 588.593 30.568 586.481 30.568C582.897 30.568 579.569 34.664 579.569 39.848V57ZM614.038 57.64C604.758 57.64 598.678 51.176 598.678 41.448C598.678 31.656 604.758 25.192 613.526 25.192C622.87 25.192 628.054 31.4 628.054 40.04C628.054 41.192 627.926 42.536 627.798 43.176H605.526C605.91 48.744 609.174 51.752 614.102 51.752C619.542 51.752 621.974 48.936 623.126 46.312L627.542 50.92C625.174 54.504 620.95 57.64 614.038 57.64ZM613.526 30.952C609.11 30.952 606.166 33.512 605.59 38.568H621.59C621.078 33.64 618.262 30.952 613.526 30.952Z" fill="black"/>
<path d="M248.171 134.64C241.515 134.64 235.435 131.952 233.067 127.024L237.291 122.544C239.019 125.68 242.859 128.88 248.427 128.88C251.499 128.88 253.483 127.792 253.483 125.552C253.483 123.248 251.115 122.48 247.659 121.648L243.499 120.624C238.571 119.472 234.027 117.296 234.027 111.6C234.027 105.776 238.699 102.256 245.867 102.256C252.523 102.256 257.195 105.456 259.115 108.976L254.891 113.456C252.715 110 249.387 107.952 245.355 107.952C242.603 107.952 240.747 109.104 240.747 111.216C240.747 113.456 242.411 114.288 246.635 115.376L250.411 116.336C257.387 118.128 259.947 120.944 259.947 125.424C259.947 131.568 254.763 134.64 248.171 134.64ZM272.788 98.416H265.62V91.12H272.788V98.416ZM272.788 134H265.62V102.832H272.788V134ZM287.538 134H280.37V102.832H287.538V111.344C288.69 106.416 291.762 102.192 297.65 102.192C303.346 102.192 306.418 105.52 306.738 111.408C307.826 106.48 310.898 102.192 316.85 102.192C322.802 102.192 325.938 105.84 325.938 112.304V134H318.77V114.48C318.77 110.192 316.978 108.016 312.754 108.016C308.53 108.016 306.738 111.408 306.738 116.528V134H299.57V114.48C299.57 110.192 297.778 108.016 293.554 108.016C289.33 108.016 287.538 111.408 287.538 116.528V134ZM342.843 134.64C336.827 134.64 333.115 130.992 333.115 124.528V102.832H340.283V122.352C340.283 126.192 341.563 128.816 346.363 128.816C351.611 128.816 353.403 125.424 353.403 120.304V102.832H360.635V134H353.403V125.488C352.251 130.416 349.051 134.64 342.843 134.64ZM375.35 134H368.182V91.12H375.35V134ZM389.524 134.64C384.404 134.64 381.332 131.76 381.332 127.28C381.332 122.864 384.404 120.176 389.46 118.192L399.892 113.776C399.636 110.64 398.228 108.528 393.94 108.528C389.78 108.528 386.516 110.96 384.724 114.224L380.436 109.104C382.868 105.776 387.732 102.192 394.644 102.192C402.388 102.192 406.74 106.608 406.74 114.288V126C406.74 127.408 407.252 127.856 408.404 127.856H410.388V134H405.972C402.644 134 400.02 132.464 400.02 127.984V125.68C399.06 129.776 396.052 134.64 389.524 134.64ZM388.244 126.192C388.244 127.984 389.46 129.072 392.084 129.072C396.82 129.072 400.02 126.256 400.02 122.032V118.704L392.02 122.288C389.332 123.504 388.244 124.592 388.244 126.192ZM426.321 134.704C420.433 134.704 417.041 130.992 417.041 125.488V108.4H412.177V102.832H417.041V99.056L424.209 94.512V102.832H433.745V108.4H424.209V123.76C424.209 127.152 425.809 127.984 427.921 127.984C430.353 127.984 432.145 126 433.041 124.208L435.281 130.608C433.937 132.592 430.865 134.704 426.321 134.704ZM447.288 98.416H440.12V91.12H447.288V98.416ZM447.288 134H440.12V102.832H447.288V134ZM467.99 134.64C459.03 134.64 452.886 128.112 452.886 118.448C452.886 108.72 459.03 102.192 467.99 102.192C477.078 102.192 483.222 108.72 483.222 118.448C483.222 128.112 477.078 134.64 467.99 134.64ZM468.054 128.688C472.726 128.688 475.926 125.616 475.926 118.448C475.926 111.216 472.726 108.144 468.054 108.144C463.446 108.144 460.246 111.216 460.246 118.448C460.246 125.616 463.446 128.688 468.054 128.688ZM496.538 134H489.37V102.832H496.538V111.344C497.69 106.416 500.89 102.192 507.098 102.192C513.178 102.192 516.89 105.84 516.89 112.304V134H509.658V114.48C509.658 110.64 508.378 108.016 503.578 108.016C498.33 108.016 496.538 111.408 496.538 116.528V134Z" fill="#EBEBEB"/>
</svg>
