<svg width="59" height="47" viewBox="0 0 59 47" fill="none" xmlns="http://www.w3.org/2000/svg">
<g clip-path="url(#clip0_8624_63522)">
<path d="M31.6202 32.8086H27.3787V38.4162H31.6202V32.8086Z" fill="#353535"/>
<path d="M31.6202 24.8066H27.3787V29.1549H31.6202V24.8066Z" fill="#353535"/>
<path d="M24.2654 29.7148H20.0238V38.4274H24.2654V29.7148Z" fill="#353535"/>
<path d="M38.9765 29.7148H34.735V38.4274H38.9765V29.7148Z" fill="#353535"/>
<path d="M26.2734 19.822C24.4951 19.822 23.2572 20.2568 22.2329 21.2843L17.0237 26.6922L20.0273 29.7327L29.5002 19.8993L38.973 29.7327L41.9766 26.6922L36.7674 21.2843C35.7462 20.26 34.5052 19.822 32.7269 19.822L29.4907 19.793L26.2734 19.822Z" fill="#353535"/>
<path d="M31.6202 13.5859H27.3787V17.9342H31.6202V13.5859Z" fill="#61C2A3"/>
<path d="M26.2734 8.5993C24.4951 8.5993 23.2572 9.03412 22.2329 10.0616L17.0237 15.4695L20.0273 18.5101L29.5002 8.67338L38.973 18.5068L41.9766 15.4663L36.7674 10.0584C35.7431 9.03412 34.5052 8.59608 32.7269 8.5993L29.4907 8.57031L26.2734 8.5993Z" fill="#61C2A3"/>
<path d="M20.3447 33.4225H20.285V33.3613L20.3447 33.4225Z" fill="#61C2A3"/>
<path d="M48.0096 29.7148H43.7681V38.4274H48.0096V29.7148Z" fill="#61C2A3"/>
<path d="M38.4226 19.7695L47.9959 29.7189L50.9996 26.6816L45.7997 21.2801C44.7786 20.2559 43.5376 19.8146 41.7624 19.8178L38.5043 19.7728H38.4194L38.4226 19.7695Z" fill="#61C2A3"/>
<path d="M10.9904 38.4316H15.2319L15.2319 29.7191H10.9904V38.4316Z" fill="#61C2A3"/>
<path d="M20.5802 19.7695L11.0068 29.7189L8 26.6816L13.1998 21.2801C14.221 20.2559 15.462 19.8146 17.2372 19.8178L20.4953 19.7728H20.5802V19.7695Z" fill="#61C2A3"/>
</g>
<defs>
<clipPath id="clip0_8624_63522">
<rect width="43" height="29.8611" fill="white" transform="translate(8 8.57031)"/>
</clipPath>
</defs>
</svg>
