<svg width="485" height="68" viewBox="0 0 485 68" fill="none" xmlns="http://www.w3.org/2000/svg">
<path d="M264.489 54.2334C255.247 54.2334 249.086 47.673 249.086 37.6898C249.086 27.5925 255.361 21.1462 264.374 21.1462C272.817 21.1462 279.264 26.7368 279.264 36.0354V39.4012H254.505C254.905 45.277 258.499 49.7837 264.489 49.7837C268.824 49.7837 272.19 47.4448 273.445 43.7368H278.978C277.666 49.8978 271.962 54.2334 264.489 54.2334ZM254.619 35.0086H273.901C273.901 29.418 270.364 25.5959 264.546 25.5959C258.499 25.5959 255.304 29.7033 254.619 35.0086Z" fill="#1E1A28"/>
<path d="M228.08 54.2335C220.664 54.2335 213.419 48.5288 213.419 37.6899C213.419 26.851 220.664 21.1463 228.08 21.1463C233.385 21.1463 237.835 23.9987 239.774 28.6765H239.889C239.774 27.4785 239.774 26.4517 239.774 25.2537V8.82422H244.909V53.3778H239.831V50.1261C239.831 48.9281 239.831 47.9013 239.889 46.7033H239.774C237.835 51.3811 233.385 54.2335 228.08 54.2335ZM218.781 37.6899C218.781 44.8778 223.117 49.7838 229.335 49.7838C235.553 49.7838 239.831 44.8778 239.831 37.6899C239.831 30.502 235.553 25.596 229.335 25.596C223.117 25.596 218.781 30.502 218.781 37.6899Z" fill="#1E1A28"/>
<path d="M195.224 54.2331C186.553 54.2331 179.651 48.2432 179.651 37.6896C179.651 27.1359 186.553 21.146 195.224 21.146C203.895 21.146 210.798 27.1359 210.798 37.6896C210.798 48.2432 203.895 54.2331 195.224 54.2331ZM185.013 37.6896C185.013 45.6761 189.52 49.7835 195.224 49.7835C200.929 49.7835 205.436 45.6761 205.436 37.6896C205.436 29.703 200.929 25.5956 195.224 25.5956C189.52 25.5956 185.013 29.703 185.013 37.6896Z" fill="#1E1A28"/>
<path d="M162.886 54.2334C153.587 54.2334 147.312 47.73 147.312 37.6898C147.312 27.6496 153.131 21.1462 162.886 21.1462C171.785 21.1462 176.691 26.908 177.376 33.9818H172.013C171.671 29.4751 168.476 25.5959 162.886 25.5959C156.554 25.5959 152.674 30.616 152.674 37.6898C152.674 45.1629 157.124 49.7837 162.886 49.7837C168.419 49.7837 171.5 45.5052 172.013 42.0254H177.376C176.52 48.4717 171.5 54.2334 162.886 54.2334Z" fill="#1E1A28"/>
<path d="M129.053 54.2331C120.382 54.2331 113.479 48.2432 113.479 37.6896C113.479 27.1359 120.382 21.146 129.053 21.146C137.724 21.146 144.627 27.1359 144.627 37.6896C144.627 48.2432 137.724 54.2331 129.053 54.2331ZM118.841 37.6896C118.841 45.6761 123.348 49.7835 129.053 49.7835C134.757 49.7835 139.264 45.6761 139.264 37.6896C139.264 29.703 134.757 25.5956 129.053 25.5956C123.348 25.5956 118.841 29.703 118.841 37.6896Z" fill="#1E1A28"/>
<path d="M102.007 53.3776L80.7853 20.5757H80.6712L80.7283 27.4213V53.3776H75.4229V13.4448H82.5538L103.775 46.1897H103.889L103.832 39.3441V13.4448H109.081V53.3776H102.007Z" fill="#1E1A28"/>
<path d="M445.467 64.7865L446.608 59.5953H455.05L460.185 51.6658L454.651 22.0015H460.983L464.634 44.4779H464.748L477.926 22.0015H485L460.185 62.6188C459.101 64.3302 458.188 64.7865 456.306 64.7865H445.467Z" fill="#1E1A28"/>
<path d="M431.324 53.3772L437.998 22.0015H444.045L442.961 27.1927H443.075C445.186 23.6558 447.183 22.0015 451.803 22.0015H455.169L454.028 27.1927H450.32C445.414 27.1927 442.448 30.3873 441.193 35.9209L437.485 53.3772H431.324Z" fill="#1E1A28"/>
<path d="M412.248 54.2908C404.489 54.2908 399.07 49.67 399.07 41.113C399.07 30.9016 406.714 21.0896 418.066 21.0896C425.825 21.0896 431.244 25.7104 431.244 34.2674C431.244 44.5929 423.6 54.2908 412.248 54.2908ZM405.516 41.8546C405.516 46.8747 408.482 49.2137 412.59 49.2137C420.633 49.2137 424.798 40.2003 424.798 33.5258C424.798 28.5057 421.831 26.1668 417.724 26.1668C409.738 26.1668 405.516 35.1802 405.516 41.8546Z" fill="#1E1A28"/>
<path d="M388.672 53.3776C383.081 53.3776 380.743 49.7266 381.826 44.6494L385.477 27.1931H379.316L380.4 22.0018H386.561L388.387 13.4448H394.719L392.894 22.0018H402.591L401.508 27.1931H391.81L388.045 44.9347C387.531 47.3306 388.273 48.1863 390.84 48.1863H397.286L396.145 53.3776H388.672Z" fill="#1E1A28"/>
<path d="M359.856 54.2908C351.756 54.2908 346.679 49.4419 346.679 41.113C346.679 31.1298 353.809 21.0896 365.732 21.0896C374.175 21.0896 379.195 25.9956 378.34 33.9822H371.95C372.635 29.7607 370.638 26.1668 365.447 26.1668C357.403 26.1668 353.125 35.2372 353.125 41.6264C353.125 46.7607 355.92 49.2137 359.971 49.2137C365.39 49.2137 368.813 45.1063 370.125 42.0258H376.742C374.403 49.0425 368.413 54.2908 359.856 54.2908Z" fill="#1E1A28"/>
<path d="M334.878 47.217C331.855 52.4083 327.519 54.2908 323.412 54.2908C317.935 54.2908 313.657 50.868 313.657 44.9352C313.657 38.5459 318.449 34.4385 326.549 34.4385H332.596C336.932 34.4385 338.13 32.0996 338.13 30.103C338.13 27.707 336.59 26.1668 332.711 26.1668C328.204 26.1668 325.294 28.3345 324.439 32.1567H317.65C319.419 25.1399 324.895 21.0896 332.939 21.0896C340.868 21.0896 345.774 25.0829 344.006 33.3547L341.211 46.5325C340.925 47.7304 341.211 48.1868 342.637 48.1868H344.12L343.036 53.3781H338.986C335.449 53.3781 334.137 51.2674 334.764 48.358L334.992 47.217H334.878ZM320.046 44.4788C320.046 47.3311 322.214 49.1566 325.58 49.1566C330.315 49.1566 334.992 45.6768 336.533 38.7741L337.16 35.9218H337.046C335.905 37.9184 334.023 39.1164 330.143 39.1734L327.063 39.2305C321.701 39.2875 320.046 41.9117 320.046 44.4788Z" fill="#1E1A28"/>
<path d="M285.008 53.3776L293.508 13.4448H321.632L320.491 18.7502H299.042L296.532 30.673H315.756L314.615 35.9783H295.391L291.683 53.3776H285.008Z" fill="#1E1A28"/>
<path d="M37.8152 57.2554H11.5884C10.4864 57.2554 9.55842 56.5819 9.30322 55.6287L3.68898 33.7874C3.58458 33.3626 3.70058 32.9171 4.00217 32.5752C4.31536 32.2333 4.76775 32.0364 5.25493 32.0364H31.4702C32.5722 32.0364 33.5117 32.7099 33.7553 33.6631L39.3696 55.5044C39.4856 55.9292 39.3696 56.3747 39.068 56.7166C38.7664 57.0585 38.3024 57.2554 37.8152 57.2554Z" fill="white"/>
<path d="M11.5884 57.2554H37.8152C38.3024 57.2554 38.7664 57.0585 39.068 56.7166C39.3696 56.3747 39.4856 55.9292 39.3696 55.5044L33.7553 33.6631C33.5117 32.7099 32.5722 32.0364 31.4702 32.0364H5.25493C4.76775 32.0364 4.31536 32.2333 4.00217 32.5752C3.70058 32.9171 3.58458 33.3626 3.68898 33.7874L9.30322 55.6287C9.55842 56.5819 10.4864 57.2554 11.5884 57.2554ZM31.3426 44.677C31.6094 46.9461 30.8438 49.0287 29.2083 50.5414C27.7235 51.909 25.6588 52.6654 23.3736 52.6654C23.1416 52.6654 22.9212 52.655 22.7124 52.6447C17.6666 52.3338 13.1311 48.4277 12.6207 43.931C12.3539 41.6619 13.1195 39.5793 14.7551 38.0666C16.2514 36.6782 18.293 35.9426 20.5781 35.9426C20.7985 35.9426 21.0189 35.9529 21.2509 35.9633C26.2967 36.2741 30.8206 40.1906 31.3426 44.677Z" fill="#1FAAFF"/>
<path d="M20.5891 38.388C19.058 38.388 17.6776 38.875 16.7148 39.7764C15.6476 40.7607 15.1489 42.1491 15.3345 43.6929C15.7289 47.0603 19.116 49.9925 22.8975 50.2204C23.0598 50.2308 23.2106 50.2308 23.373 50.2308C24.9042 50.2308 26.273 49.7438 27.2357 48.8527C28.3029 47.8684 28.7901 46.48 28.6161 44.9362C28.2217 41.5689 24.8346 38.6367 21.0531 38.4087C20.8791 38.3984 20.7283 38.388 20.5891 38.388Z" fill="#1FAAFF"/>
<path d="M33.0701 27.4985V4.68336C33.0701 3.53327 32.0146 2.5904 30.727 2.5904H5.24251C3.95494 2.5904 2.89937 3.53327 2.89937 4.68336V27.4985C2.89937 28.6486 3.95494 29.5915 5.24251 29.5915H30.727C32.0146 29.5915 33.0701 28.6486 33.0701 27.4985ZM19.7189 15.9044C19.7305 17.0752 19.7073 18.246 19.6493 19.3754C19.5913 20.7638 19.4985 21.831 19.3477 22.8464C19.2781 23.3334 18.7793 23.6856 18.2225 23.6235C17.7702 23.5717 17.4106 23.2505 17.3526 22.8464C17.2134 21.8103 17.1206 20.712 17.051 19.3754C17.0046 18.3082 16.9814 17.1685 16.9814 15.9044C16.993 14.5679 17.0162 13.4592 17.0626 12.4335C17.109 11.4077 17.1902 10.1955 17.341 8.96249C17.399 8.5066 17.8398 8.16469 18.3385 8.16469C18.3733 8.16469 18.4081 8.16469 18.4429 8.17505C18.9185 8.22685 19.2781 8.54804 19.3245 8.96249C19.4869 10.2369 19.5565 11.4906 19.6029 12.4335C19.6957 13.6664 19.7073 14.8787 19.7189 15.9044Z" fill="white"/>
<path d="M17.1672 22.8942C17.2252 23.3397 17.6196 23.7127 18.1416 23.7645C18.7564 23.8267 19.3131 23.4433 19.3943 22.8942C19.5567 21.7338 19.6379 20.5733 19.6959 19.4129C19.7539 18.2524 19.7771 17.092 19.7655 15.9315C19.7539 14.7711 19.7423 13.6106 19.6843 12.4502C19.6263 11.2897 19.5451 10.1293 19.4059 8.96886C19.3479 8.52333 18.9536 8.13997 18.42 8.08817C17.8052 8.026 17.2484 8.41972 17.1788 8.96886C17.0396 10.1293 16.9584 11.2897 16.9004 12.4502C16.8424 13.6106 16.8192 14.7711 16.8192 15.9315C16.8192 17.092 16.8308 18.2524 16.8888 19.4129C16.9236 20.5733 17.0048 21.7338 17.1672 22.8942Z" fill="black"/>
<path d="M0.0348012 66.881C0.0464008 66.9328 0.0579991 66.9743 0.0695988 67.0261C0.0811984 67.0675 0.0927974 67.0986 0.115997 67.1297C0.139196 67.1711 0.150796 67.2126 0.173995 67.254C0.197195 67.2955 0.208794 67.3265 0.231994 67.3576C0.255193 67.3991 0.289993 67.4301 0.313193 67.4716C0.347992 67.5027 0.37119 67.5338 0.405989 67.5648C0.440788 67.5959 0.475587 67.627 0.521985 67.6581C0.545185 67.6788 0.568384 67.6995 0.579984 67.7099C0.591583 67.7203 0.614786 67.7306 0.626385 67.741C0.661184 67.7617 0.684382 67.7721 0.719181 67.7928C0.76558 67.8239 0.823577 67.8446 0.869976 67.8653C0.893175 67.8757 0.927976 67.886 0.951175 67.8964C1.00917 67.9171 1.07877 67.9378 1.13677 67.9482C1.15997 67.9586 1.18317 67.9586 1.20637 67.9689C1.29917 67.9897 1.39196 68 1.48476 68H34.393C34.4162 68 34.451 67.9896 34.4742 67.9896C34.5438 67.9896 34.625 67.9793 34.7062 67.9689C34.741 67.9586 34.7758 67.9482 34.8106 67.9378C34.8802 67.9171 34.9382 67.9068 34.9962 67.8757C35.0426 67.8653 35.0658 67.8446 35.1122 67.8239C35.1702 67.7928 35.2166 67.7721 35.2746 67.7306C35.3094 67.7099 35.3442 67.6788 35.379 67.6581C35.4254 67.6166 35.4718 67.5752 35.5182 67.5338C35.5414 67.513 35.553 67.5027 35.5762 67.4819L42.6868 59.2449C42.6984 59.2345 42.6984 59.2241 42.71 59.2034C42.7448 59.162 42.768 59.1205 42.7912 59.0791C42.8144 59.048 42.8376 59.0273 42.8492 58.9962C42.8492 58.9858 42.8608 58.9755 42.8608 58.9651C42.884 58.9237 42.8956 58.8926 42.9072 58.8511C42.9188 58.8097 42.942 58.7682 42.9536 58.7268C42.9536 58.7164 42.9652 58.7061 42.9652 58.6957C42.9768 58.6646 42.9768 58.6336 42.9768 58.6025C42.9884 58.5507 42.9884 58.5092 43 58.4574C43 58.4367 43 58.4263 43 58.416C43 58.4056 43 58.3953 43 58.3849C43 58.3642 43 58.3538 42.9884 58.3434C42.9884 58.302 42.9768 58.2502 42.9768 58.1984C42.9768 58.1777 42.9652 58.1569 42.9652 58.1362V58.1259L37.6757 37.528C36.4926 32.938 35.901 28.234 35.901 23.5301V1.32622C35.901 1.28477 35.9126 1.23297 35.9126 1.19153C35.9126 0.518056 35.3326 0 34.567 0H1.48476C0.661184 0 0 0.590576 0 1.32622V66.6634C0 66.6945 0.0116004 66.7256 0.0116004 66.7567C0.0232001 66.8085 0.0232015 66.8499 0.0348012 66.881ZM33.6159 33.6529L39.2301 55.4941C39.4505 56.323 38.7313 57.1208 37.7801 57.1208H11.5533C10.5093 57.1208 9.61613 56.4785 9.38414 55.577L3.76989 33.7358C3.5611 32.9069 4.26868 32.1091 5.21985 32.1091H31.4467C32.4791 32.1091 33.3839 32.7515 33.6159 33.6529ZM2.98112 4.65214C2.98112 3.55387 3.97869 2.6628 5.20826 2.6628H30.6927C31.9223 2.6628 32.9199 3.55387 32.9199 4.65214V27.4673C32.9199 28.5656 31.9223 29.4566 30.6927 29.4566H5.20826C3.97869 29.4566 2.98112 28.5656 2.98112 27.4673V4.65214Z" fill="black"/>
</svg>
