<svg width="46" height="67" viewBox="0 0 46 67" fill="none" xmlns="http://www.w3.org/2000/svg">
<path d="M18.3647 22.5566C18.4268 22.9956 18.8487 23.3631 19.4071 23.4141C20.0648 23.4754 20.6604 23.0976 20.7473 22.5566C20.921 21.4132 21.0078 20.2698 21.0699 19.1264C21.1319 17.983 21.1567 16.8397 21.1443 15.6963C21.1319 14.5529 21.1195 13.4095 21.0575 12.2662C20.9954 11.1228 20.9086 9.9794 20.7597 8.83602C20.6976 8.39704 20.2757 8.01932 19.7049 7.96828C19.0472 7.90702 18.4516 8.29496 18.3771 8.83602C18.2282 9.9794 18.1414 11.1228 18.0793 12.2662C18.0173 13.4095 17.9925 14.5529 17.9925 15.6963C17.9925 16.8397 18.0049 17.983 18.0669 19.1264C18.1041 20.2698 18.191 21.4132 18.3647 22.5566Z" fill="black"/>
<path d="M0.0372291 65.8975C0.0496381 65.9485 0.0620455 65.9893 0.0744545 66.0404C0.0868634 66.0812 0.0992716 66.1118 0.12409 66.1425C0.148907 66.1833 0.161316 66.2241 0.186134 66.265C0.210952 66.3058 0.223361 66.3364 0.248179 66.3671C0.272997 66.4079 0.310225 66.4385 0.335043 66.4794C0.37227 66.51 0.397087 66.5406 0.434313 66.5712C0.47154 66.6019 0.508767 66.6325 0.558403 66.6631C0.583221 66.6835 0.608039 66.7039 0.620448 66.7142C0.632857 66.7244 0.657678 66.7346 0.670087 66.7448C0.707313 66.7652 0.73213 66.7754 0.769357 66.7958C0.818993 66.8264 0.881036 66.8469 0.930672 66.8673C0.95549 66.8775 0.992718 66.8877 1.01754 66.8979C1.07958 66.9183 1.15404 66.9387 1.21608 66.949C1.2409 66.9592 1.26572 66.9592 1.29053 66.9694C1.38981 66.9898 1.48908 67 1.58835 67H1.60076H36.7801H36.7926C36.8174 67 36.8546 66.9898 36.8794 66.9898C36.9539 66.9898 37.0407 66.9796 37.1276 66.9694C37.1648 66.9592 37.2021 66.949 37.2393 66.9388C37.3137 66.9183 37.3758 66.9081 37.4378 66.8775C37.4875 66.8673 37.5123 66.8469 37.5619 66.8265C37.624 66.7958 37.6736 66.7754 37.7356 66.7346C37.7729 66.7142 37.8101 66.6835 37.8473 66.6631C37.8969 66.6223 37.9466 66.5814 37.9962 66.5406C38.021 66.5202 38.0335 66.51 38.0583 66.4896L45.665 58.3736C45.6774 58.3634 45.6774 58.3532 45.6898 58.3328C45.727 58.2919 45.7518 58.2511 45.7766 58.2103C45.8015 58.1796 45.8263 58.1592 45.8387 58.1286C45.8387 58.1184 45.8511 58.1082 45.8511 58.098C45.8759 58.0571 45.8883 58.0265 45.9007 57.9857C45.9131 57.9448 45.938 57.904 45.9504 57.8632C45.9504 57.853 45.9628 57.8428 45.9628 57.8326C45.9752 57.8019 45.9752 57.7713 45.9752 57.7407C45.9876 57.6896 45.9876 57.6488 46 57.5977C46 57.5773 46 57.5671 46 57.5569C46 57.5467 46 57.5365 46 57.5263C46 57.5059 46 57.4957 45.9876 57.4855C45.9876 57.4446 45.9752 57.3936 45.9752 57.3425C45.9752 57.3221 45.9628 57.3017 45.9628 57.2813V57.2711L40.3043 36.9761C39.0386 32.4536 38.4057 27.8188 38.4057 23.1841V1.30671C38.4057 1.26588 38.4181 1.21484 38.4181 1.17401C38.4181 0.510437 37.7977 0 36.9787 0H1.58835C0.707313 0 0 0.581891 0 1.30671V65.6831C0 65.7137 0.0124097 65.7443 0.0124097 65.7749C0.0248187 65.826 0.0248202 65.8668 0.0372291 65.8975ZM35.9612 33.158L41.9671 54.678C42.2029 55.4947 41.4335 56.2808 40.416 56.2808H12.3593C11.2425 56.2808 10.287 55.6479 10.0388 54.7597L4.03291 33.2397C3.80955 32.423 4.5665 31.6369 5.58403 31.6369H33.6407C34.7451 31.6369 35.713 32.2698 35.9612 33.158ZM3.1891 4.58373C3.1891 3.5016 4.25627 2.62364 5.57162 2.62364H32.8341C34.1494 2.62364 35.2166 3.5016 35.2166 4.58373V27.0634C35.2166 28.1455 34.1494 29.0235 32.8341 29.0235H5.57162C4.25627 29.0235 3.1891 28.1455 3.1891 27.0634V4.58373Z" fill="black"/>
<path fill-rule="evenodd" clip-rule="evenodd" d="M15.1252 38.0974C16.6023 36.8181 18.72 36.127 21.069 36.127C21.2553 36.127 21.4552 36.1382 21.6804 36.1508C21.7133 36.1526 21.7468 36.1545 21.7808 36.1564C27.5822 36.4799 32.7785 40.6412 33.3836 45.4202C33.6505 47.6112 32.9031 49.5816 31.2659 50.9785C29.7889 52.2431 27.689 52.9342 25.34 52.9342H25.3398C25.0907 52.9342 24.8594 52.9342 24.6103 52.9195C18.8089 52.596 13.6126 48.4346 13.0075 43.6557C12.7228 41.4647 13.488 39.4943 15.1252 38.0974ZM17.5595 40.0072C18.5894 39.119 20.0661 38.6392 21.7041 38.6392C21.834 38.6392 21.9733 38.647 22.1304 38.6557C22.1533 38.657 22.1767 38.6583 22.2004 38.6596C26.2457 38.8842 29.8692 41.7733 30.2911 45.0911C30.4772 46.6122 29.956 47.9802 28.8144 48.95C27.7844 49.828 26.3202 50.3078 24.6822 50.3078H24.6821C24.5084 50.3078 24.3471 50.3078 24.1734 50.2976C20.1281 50.073 16.5047 47.1839 16.0828 43.8661C15.8843 42.345 16.4178 40.977 17.5595 40.0072Z" fill="black"/>
</svg>
