<svg width="485" height="68" viewBox="0 0 485 68" fill="none" xmlns="http://www.w3.org/2000/svg">
<path d="M264.489 52.4092C255.247 52.4092 249.086 45.8488 249.086 35.8656C249.086 25.7683 255.361 19.322 264.374 19.322C272.817 19.322 279.264 24.9126 279.264 34.2112V37.577H254.505C254.905 43.4528 258.499 47.9595 264.489 47.9595C268.824 47.9595 272.19 45.6206 273.445 41.9125H278.978C277.666 48.0736 271.962 52.4092 264.489 52.4092ZM254.619 33.1844H273.901C273.901 27.5938 270.364 23.7717 264.546 23.7717C258.499 23.7717 255.304 27.879 254.619 33.1844Z" fill="white"/>
<path d="M228.08 52.4092C220.664 52.4092 213.419 46.7046 213.419 35.8657C213.419 25.0268 220.664 19.3221 228.08 19.3221C233.385 19.3221 237.835 22.1744 239.774 26.8523H239.889C239.774 25.6543 239.774 24.6275 239.774 23.4295V7H244.909V51.5535H239.831V48.3019C239.831 47.1039 239.831 46.077 239.889 44.8791H239.774C237.835 49.5569 233.385 52.4092 228.08 52.4092ZM218.781 35.8657C218.781 43.0536 223.117 47.9596 229.335 47.9596C235.553 47.9596 239.831 43.0536 239.831 35.8657C239.831 28.6778 235.553 23.7718 229.335 23.7718C223.117 23.7718 218.781 28.6778 218.781 35.8657Z" fill="white"/>
<path d="M195.224 52.409C186.553 52.409 179.651 46.4191 179.651 35.8655C179.651 25.3118 186.553 19.3219 195.224 19.3219C203.895 19.3219 210.798 25.3118 210.798 35.8655C210.798 46.4191 203.895 52.409 195.224 52.409ZM185.013 35.8655C185.013 43.852 189.52 47.9594 195.224 47.9594C200.929 47.9594 205.436 43.852 205.436 35.8655C205.436 27.8789 200.929 23.7715 195.224 23.7715C189.52 23.7715 185.013 27.8789 185.013 35.8655Z" fill="white"/>
<path d="M162.886 52.4092C153.587 52.4092 147.312 45.9058 147.312 35.8656C147.312 25.8254 153.131 19.322 162.886 19.322C171.785 19.322 176.691 25.0837 177.376 32.1575H172.013C171.671 27.6509 168.476 23.7717 162.886 23.7717C156.554 23.7717 152.674 28.7918 152.674 35.8656C152.674 43.3387 157.124 47.9595 162.886 47.9595C168.419 47.9595 171.5 43.681 172.013 40.2011H177.376C176.52 46.6474 171.5 52.4092 162.886 52.4092Z" fill="white"/>
<path d="M129.053 52.409C120.382 52.409 113.479 46.4191 113.479 35.8655C113.479 25.3118 120.382 19.3219 129.053 19.3219C137.724 19.3219 144.627 25.3118 144.627 35.8655C144.627 46.4191 137.724 52.409 129.053 52.409ZM118.841 35.8655C118.841 43.852 123.348 47.9594 129.053 47.9594C134.757 47.9594 139.264 43.852 139.264 35.8655C139.264 27.8789 134.757 23.7715 129.053 23.7715C123.348 23.7715 118.841 27.8789 118.841 35.8655Z" fill="white"/>
<path d="M102.007 51.5535L80.7853 18.7516H80.6712L80.7283 25.5972V51.5535H75.4229V11.6207H82.5538L103.775 44.3656H103.889L103.832 37.52V11.6207H109.081V51.5535H102.007Z" fill="white"/>
<path d="M445.467 62.9626L446.608 57.7713H455.05L460.185 49.8418L454.651 20.1775H460.983L464.634 42.6539H464.748L477.926 20.1775H485L460.185 60.7948C459.101 62.5062 458.188 62.9626 456.306 62.9626H445.467Z" fill="white"/>
<path d="M431.324 51.5532L437.998 20.1775H444.045L442.961 25.3687H443.075C445.186 21.8318 447.183 20.1775 451.803 20.1775H455.169L454.028 25.3687H450.32C445.414 25.3687 442.448 28.5634 441.193 34.0969L437.485 51.5532H431.324Z" fill="white"/>
<path d="M412.248 52.4666C404.489 52.4666 399.07 47.8458 399.07 39.2888C399.07 29.0774 406.714 19.2654 418.066 19.2654C425.825 19.2654 431.244 23.8862 431.244 32.4432C431.244 42.7687 423.6 52.4666 412.248 52.4666ZM405.516 40.0304C405.516 45.0505 408.482 47.3894 412.59 47.3894C420.633 47.3894 424.798 38.3761 424.798 31.7016C424.798 26.6815 421.831 24.3425 417.724 24.3425C409.738 24.3425 405.516 33.3559 405.516 40.0304Z" fill="white"/>
<path d="M388.672 51.5535C383.081 51.5535 380.743 47.9025 381.826 42.8253L385.477 25.369H379.316L380.4 20.1777H386.561L388.387 11.6207H394.719L392.894 20.1777H402.591L401.508 25.369H391.81L388.045 43.1106C387.531 45.5065 388.273 46.3622 390.84 46.3622H397.286L396.145 51.5535H388.672Z" fill="white"/>
<path d="M359.856 52.4666C351.756 52.4666 346.679 47.6176 346.679 39.2888C346.679 29.3056 353.809 19.2654 365.732 19.2654C374.175 19.2654 379.195 24.1714 378.34 32.158H371.95C372.635 27.9365 370.638 24.3425 365.447 24.3425C357.403 24.3425 353.125 33.413 353.125 39.8022C353.125 44.9364 355.92 47.3894 359.971 47.3894C365.39 47.3894 368.813 43.2821 370.125 40.2016H376.742C374.403 47.2183 368.413 52.4666 359.856 52.4666Z" fill="white"/>
<path d="M334.878 45.3928C331.855 50.5841 327.519 52.4666 323.412 52.4666C317.935 52.4666 313.657 49.0438 313.657 43.1109C313.657 36.7217 318.449 32.6143 326.549 32.6143H332.596C336.932 32.6143 338.13 30.2754 338.13 28.2788C338.13 25.8828 336.59 24.3425 332.711 24.3425C328.204 24.3425 325.294 26.5103 324.439 30.3325H317.65C319.419 23.3157 324.895 19.2654 332.939 19.2654C340.868 19.2654 345.774 23.2587 344.006 31.5304L341.211 44.7082C340.925 45.9062 341.211 46.3626 342.637 46.3626H344.12L343.036 51.5539H338.986C335.449 51.5539 334.137 49.4431 334.764 46.5337L334.992 45.3928H334.878ZM320.046 42.6546C320.046 45.5069 322.214 47.3324 325.58 47.3324C330.315 47.3324 334.992 43.8525 336.533 36.9499L337.16 34.0975H337.046C335.905 36.0942 334.023 37.2922 330.143 37.3492L327.063 37.4063C321.701 37.4633 320.046 40.0875 320.046 42.6546Z" fill="white"/>
<path d="M285.008 51.5535L293.508 11.6207H321.632L320.491 16.9261H299.042L296.532 28.8489H315.756L314.615 34.1542H295.391L291.683 51.5535H285.008Z" fill="white"/>
<path d="M18.3647 23.5567C18.4267 23.9957 18.8487 24.3632 19.4071 24.4142C20.0647 24.4755 20.6604 24.0978 20.7472 23.5567C20.9209 22.4133 21.0078 21.2699 21.0699 20.1266C21.1319 18.9832 21.1567 17.8398 21.1443 16.6964C21.1319 15.553 21.1195 14.4097 21.0574 13.2663C20.9954 12.1229 20.9085 10.9795 20.7596 9.83614C20.6976 9.39717 20.2757 9.01944 19.7049 8.9684C19.0472 8.90715 18.4516 9.29508 18.3771 9.83614C18.2282 10.9795 18.1413 12.1229 18.0793 13.2663C18.0173 14.4097 17.9924 15.553 17.9924 16.6964C17.9924 17.8398 18.0048 18.9832 18.0669 20.1266C18.1041 21.2699 18.191 22.4133 18.3647 23.5567Z" fill="white"/>
<path d="M0.0372291 66.8975C0.0496381 66.9485 0.0620455 66.9893 0.0744545 67.0404C0.0868634 67.0812 0.0992716 67.1118 0.12409 67.1425C0.148907 67.1833 0.161316 67.2241 0.186134 67.265C0.210952 67.3058 0.223361 67.3364 0.248179 67.3671C0.272997 67.4079 0.310225 67.4385 0.335043 67.4794C0.37227 67.51 0.397087 67.5406 0.434313 67.5712C0.47154 67.6019 0.508767 67.6325 0.558403 67.6631C0.583221 67.6835 0.608039 67.7039 0.620448 67.7142C0.632857 67.7244 0.657678 67.7346 0.670087 67.7448C0.707313 67.7652 0.73213 67.7754 0.769357 67.7958C0.818993 67.8264 0.881036 67.8469 0.930672 67.8673C0.95549 67.8775 0.992718 67.8877 1.01754 67.8979C1.07958 67.9183 1.15404 67.9387 1.21608 67.949C1.2409 67.9592 1.26572 67.9592 1.29053 67.9694C1.38981 67.9898 1.48908 68 1.58835 68H1.60076H36.7801H36.7926C36.8174 68 36.8546 67.9898 36.8794 67.9898C36.9539 67.9898 37.0407 67.9796 37.1276 67.9694C37.1648 67.9592 37.2021 67.949 37.2393 67.9388C37.3137 67.9183 37.3758 67.9081 37.4378 67.8775C37.4875 67.8673 37.5123 67.8469 37.5619 67.8265C37.624 67.7958 37.6736 67.7754 37.7356 67.7346C37.7729 67.7142 37.8101 67.6835 37.8473 67.6631C37.8969 67.6223 37.9466 67.5814 37.9962 67.5406C38.021 67.5202 38.0335 67.51 38.0583 67.4896L45.665 59.3736C45.6774 59.3634 45.6774 59.3532 45.6898 59.3328C45.727 59.2919 45.7518 59.2511 45.7766 59.2103C45.8015 59.1796 45.8263 59.1592 45.8387 59.1286C45.8387 59.1184 45.8511 59.1082 45.8511 59.098C45.8759 59.0571 45.8883 59.0265 45.9007 58.9857C45.9131 58.9448 45.938 58.904 45.9504 58.8632C45.9504 58.853 45.9628 58.8428 45.9628 58.8326C45.9752 58.8019 45.9752 58.7713 45.9752 58.7407C45.9876 58.6896 45.9876 58.6488 46 58.5977C46 58.5773 46 58.5671 46 58.5569C46 58.5467 46 58.5365 46 58.5263C46 58.5059 46 58.4957 45.9876 58.4855C45.9876 58.4446 45.9752 58.3936 45.9752 58.3425C45.9752 58.3221 45.9628 58.3017 45.9628 58.2813V58.2711L40.3043 37.9761C39.0386 33.4536 38.4057 28.8188 38.4057 24.1841V2.30671C38.4057 2.26588 38.4181 2.21484 38.4181 2.17401C38.4181 1.51044 37.7977 1 36.9787 1H1.58835C0.707313 1 0 1.58189 0 2.30671V66.6831C0 66.7137 0.0124097 66.7443 0.0124097 66.7749C0.0248187 66.826 0.0248202 66.8668 0.0372291 66.8975ZM35.9612 34.158L41.9671 55.678C42.2029 56.4947 41.4335 57.2808 40.416 57.2808H12.3593C11.2425 57.2808 10.287 56.6479 10.0388 55.7597L4.03291 34.2397C3.80955 33.423 4.5665 32.6369 5.58403 32.6369H33.6407C34.7451 32.6369 35.713 33.2698 35.9612 34.158ZM3.1891 5.58373C3.1891 4.5016 4.25627 3.62364 5.57162 3.62364H32.8341C34.1494 3.62364 35.2166 4.5016 35.2166 5.58373V28.0634C35.2166 29.1455 34.1494 30.0235 32.8341 30.0235H5.57162C4.25627 30.0235 3.1891 29.1455 3.1891 28.0634V5.58373Z" fill="white"/>
<path fill-rule="evenodd" clip-rule="evenodd" d="M15.1252 39.0974C16.6022 37.8181 18.7199 37.127 21.069 37.127C21.2553 37.127 21.4551 37.1382 21.6804 37.1508C21.7133 37.1526 21.7467 37.1545 21.7808 37.1564C27.5822 37.4799 32.7785 41.6412 33.3836 46.4202C33.6505 48.6112 32.9031 50.5816 31.2659 51.9785C29.7888 53.2431 27.689 53.9342 25.3399 53.9342H25.3397C25.0907 53.9342 24.8594 53.9342 24.6103 53.9195C18.8089 53.596 13.6126 49.4346 13.0075 44.6557C12.7228 42.4647 13.488 40.4943 15.1252 39.0974ZM17.5594 41.0072C18.5894 40.119 20.0661 39.6392 21.704 39.6392C21.8339 39.6392 21.9733 39.647 22.1304 39.6557C22.1533 39.657 22.1767 39.6583 22.2004 39.6596C26.2457 39.8842 29.8691 42.7733 30.291 46.0911C30.4772 47.6122 29.956 48.9802 28.8144 49.95C27.7844 50.828 26.3202 51.3078 24.6822 51.3078H24.682C24.5084 51.3078 24.3471 51.3078 24.1734 51.2976C20.1281 51.073 16.5047 48.1839 16.0828 44.8661C15.8842 43.345 16.4178 41.977 17.5594 41.0072Z" fill="white"/>
</svg>
