<svg width="485" height="67" viewBox="0 0 485 67" fill="none" xmlns="http://www.w3.org/2000/svg">
<path d="M18.3647 22.5566C18.4267 22.9956 18.8487 23.3631 19.4071 23.4141C20.0647 23.4754 20.6604 23.0976 20.7472 22.5566C20.9209 21.4132 21.0078 20.2698 21.0699 19.1264C21.1319 17.983 21.1567 16.8397 21.1443 15.6963C21.1319 14.5529 21.1195 13.4095 21.0574 12.2662C20.9954 11.1228 20.9085 9.9794 20.7596 8.83602C20.6976 8.39704 20.2757 8.01932 19.7049 7.96828C19.0472 7.90702 18.4516 8.29496 18.3771 8.83602C18.2282 9.9794 18.1413 11.1228 18.0793 12.2662C18.0173 13.4095 17.9924 14.5529 17.9924 15.6963C17.9924 16.8397 18.0048 17.983 18.0669 19.1264C18.1041 20.2698 18.191 21.4132 18.3647 22.5566Z" fill="black"/>
<path d="M0.0372291 65.8975C0.0496381 65.9485 0.0620455 65.9893 0.0744545 66.0404C0.0868634 66.0812 0.0992716 66.1118 0.12409 66.1425C0.148907 66.1833 0.161316 66.2241 0.186134 66.265C0.210952 66.3058 0.223361 66.3364 0.248179 66.3671C0.272997 66.4079 0.310225 66.4385 0.335043 66.4794C0.37227 66.51 0.397087 66.5406 0.434313 66.5712C0.47154 66.6019 0.508767 66.6325 0.558403 66.6631C0.583221 66.6835 0.608039 66.7039 0.620448 66.7142C0.632857 66.7244 0.657678 66.7346 0.670087 66.7448C0.707313 66.7652 0.73213 66.7754 0.769357 66.7958C0.818993 66.8264 0.881036 66.8469 0.930672 66.8673C0.95549 66.8775 0.992718 66.8877 1.01754 66.8979C1.07958 66.9183 1.15404 66.9387 1.21608 66.949C1.2409 66.9592 1.26572 66.9592 1.29053 66.9694C1.38981 66.9898 1.48908 67 1.58835 67H1.60076H36.7801H36.7926C36.8174 67 36.8546 66.9898 36.8794 66.9898C36.9539 66.9898 37.0407 66.9796 37.1276 66.9694C37.1648 66.9592 37.2021 66.949 37.2393 66.9388C37.3137 66.9183 37.3758 66.9081 37.4378 66.8775C37.4875 66.8673 37.5123 66.8469 37.5619 66.8265C37.624 66.7958 37.6736 66.7754 37.7356 66.7346C37.7729 66.7142 37.8101 66.6835 37.8473 66.6631C37.8969 66.6223 37.9466 66.5814 37.9962 66.5406C38.021 66.5202 38.0335 66.51 38.0583 66.4896L45.665 58.3736C45.6774 58.3634 45.6774 58.3532 45.6898 58.3328C45.727 58.2919 45.7518 58.2511 45.7766 58.2103C45.8015 58.1796 45.8263 58.1592 45.8387 58.1286C45.8387 58.1184 45.8511 58.1082 45.8511 58.098C45.8759 58.0571 45.8883 58.0265 45.9007 57.9857C45.9131 57.9448 45.938 57.904 45.9504 57.8632C45.9504 57.853 45.9628 57.8428 45.9628 57.8326C45.9752 57.8019 45.9752 57.7713 45.9752 57.7407C45.9876 57.6896 45.9876 57.6488 46 57.5977C46 57.5773 46 57.5671 46 57.5569C46 57.5467 46 57.5365 46 57.5263C46 57.5059 46 57.4957 45.9876 57.4855C45.9876 57.4446 45.9752 57.3936 45.9752 57.3425C45.9752 57.3221 45.9628 57.3017 45.9628 57.2813V57.2711L40.3043 36.9761C39.0386 32.4536 38.4057 27.8188 38.4057 23.1841V1.30671C38.4057 1.26588 38.4181 1.21484 38.4181 1.17401C38.4181 0.510437 37.7977 0 36.9787 0H1.58835C0.707313 0 0 0.581891 0 1.30671V65.6831C0 65.7137 0.0124097 65.7443 0.0124097 65.7749C0.0248187 65.826 0.0248202 65.8668 0.0372291 65.8975ZM35.9612 33.158L41.9671 54.678C42.2029 55.4947 41.4335 56.2808 40.416 56.2808H12.3593C11.2425 56.2808 10.287 55.6479 10.0388 54.7597L4.03291 33.2397C3.80955 32.423 4.5665 31.6369 5.58403 31.6369H33.6407C34.7451 31.6369 35.713 32.2698 35.9612 33.158ZM3.1891 4.58373C3.1891 3.5016 4.25627 2.62364 5.57162 2.62364H32.8341C34.1494 2.62364 35.2166 3.5016 35.2166 4.58373V27.0634C35.2166 28.1455 34.1494 29.0235 32.8341 29.0235H5.57162C4.25627 29.0235 3.1891 28.1455 3.1891 27.0634V4.58373Z" fill="black"/>
<path fill-rule="evenodd" clip-rule="evenodd" d="M15.1252 38.0974C16.6022 36.8181 18.7199 36.127 21.069 36.127C21.2553 36.127 21.4551 36.1382 21.6804 36.1508C21.7133 36.1526 21.7467 36.1545 21.7808 36.1564C27.5822 36.4799 32.7785 40.6412 33.3836 45.4202C33.6505 47.6112 32.9031 49.5816 31.2659 50.9785C29.7888 52.2431 27.689 52.9342 25.3399 52.9342H25.3397C25.0907 52.9342 24.8594 52.9342 24.6103 52.9195C18.8089 52.596 13.6126 48.4346 13.0075 43.6557C12.7228 41.4647 13.488 39.4943 15.1252 38.0974ZM17.5594 40.0072C18.5894 39.119 20.0661 38.6392 21.704 38.6392C21.8339 38.6392 21.9733 38.647 22.1304 38.6557C22.1533 38.657 22.1767 38.6583 22.2004 38.6596C26.2457 38.8842 29.8691 41.7733 30.291 45.0911C30.4772 46.6122 29.956 47.9802 28.8144 48.95C27.7844 49.828 26.3202 50.3078 24.6822 50.3078H24.682C24.5084 50.3078 24.3471 50.3078 24.1734 50.2976C20.1281 50.073 16.5047 47.1839 16.0828 43.8661C15.8842 42.345 16.4178 40.977 17.5594 40.0072Z" fill="black"/>
<path d="M264.489 51.4092C255.247 51.4092 249.086 44.8488 249.086 34.8656C249.086 24.7683 255.361 18.322 264.374 18.322C272.817 18.322 279.264 23.9126 279.264 33.2112V36.577H254.505C254.905 42.4528 258.499 46.9595 264.489 46.9595C268.824 46.9595 272.19 44.6206 273.445 40.9125H278.978C277.666 47.0736 271.962 51.4092 264.489 51.4092ZM254.619 32.1844H273.901C273.901 26.5938 270.364 22.7717 264.546 22.7717C258.499 22.7717 255.304 26.879 254.619 32.1844Z" fill="#1E1A28"/>
<path d="M228.08 51.4092C220.664 51.4092 213.419 45.7046 213.419 34.8657C213.419 24.0268 220.664 18.3221 228.08 18.3221C233.385 18.3221 237.835 21.1744 239.774 25.8523H239.889C239.774 24.6543 239.774 23.6275 239.774 22.4295V6H244.909V50.5535H239.831V47.3019C239.831 46.1039 239.831 45.077 239.889 43.8791H239.774C237.835 48.5569 233.385 51.4092 228.08 51.4092ZM218.781 34.8657C218.781 42.0536 223.117 46.9596 229.335 46.9596C235.553 46.9596 239.831 42.0536 239.831 34.8657C239.831 27.6778 235.553 22.7718 229.335 22.7718C223.117 22.7718 218.781 27.6778 218.781 34.8657Z" fill="#1E1A28"/>
<path d="M195.224 51.4089C186.553 51.4089 179.651 45.419 179.651 34.8653C179.651 24.3117 186.553 18.3218 195.224 18.3218C203.895 18.3218 210.798 24.3117 210.798 34.8653C210.798 45.419 203.895 51.4089 195.224 51.4089ZM185.013 34.8653C185.013 42.8519 189.52 46.9593 195.224 46.9593C200.929 46.9593 205.436 42.8519 205.436 34.8653C205.436 26.8788 200.929 22.7714 195.224 22.7714C189.52 22.7714 185.013 26.8788 185.013 34.8653Z" fill="#1E1A28"/>
<path d="M162.886 51.4092C153.587 51.4092 147.312 44.9058 147.312 34.8656C147.312 24.8254 153.131 18.322 162.886 18.322C171.785 18.322 176.691 24.0837 177.376 31.1575H172.013C171.671 26.6509 168.476 22.7717 162.886 22.7717C156.554 22.7717 152.674 27.7918 152.674 34.8656C152.674 42.3387 157.124 46.9595 162.886 46.9595C168.419 46.9595 171.5 42.681 172.013 39.2011H177.376C176.52 45.6474 171.5 51.4092 162.886 51.4092Z" fill="#1E1A28"/>
<path d="M129.053 51.4089C120.382 51.4089 113.479 45.419 113.479 34.8653C113.479 24.3117 120.382 18.3218 129.053 18.3218C137.724 18.3218 144.627 24.3117 144.627 34.8653C144.627 45.419 137.724 51.4089 129.053 51.4089ZM118.841 34.8653C118.841 42.8519 123.348 46.9593 129.053 46.9593C134.757 46.9593 139.264 42.8519 139.264 34.8653C139.264 26.8788 134.757 22.7714 129.053 22.7714C123.348 22.7714 118.841 26.8788 118.841 34.8653Z" fill="#1E1A28"/>
<path d="M102.007 50.5534L80.7853 17.7515H80.6712L80.7283 24.5971V50.5534H75.4229V10.6206H82.5538L103.775 43.3655H103.889L103.832 36.5198V10.6206H109.081V50.5534H102.007Z" fill="#1E1A28"/>
<path d="M445.467 61.9623L446.608 56.7711H455.05L460.185 48.8416L454.651 19.1772H460.983L464.634 41.6537H464.748L477.926 19.1772H485L460.185 59.7946C459.101 61.506 458.188 61.9623 456.306 61.9623H445.467Z" fill="#1E1A28"/>
<path d="M431.324 50.553L437.998 19.1772H444.045L442.961 24.3685H443.075C445.186 20.8316 447.183 19.1772 451.803 19.1772H455.169L454.028 24.3685H450.32C445.414 24.3685 442.448 27.5631 441.193 33.0967L437.485 50.553H431.324Z" fill="#1E1A28"/>
<path d="M412.248 51.4666C404.489 51.4666 399.07 46.8458 399.07 38.2888C399.07 28.0774 406.714 18.2654 418.066 18.2654C425.825 18.2654 431.244 22.8862 431.244 31.4432C431.244 41.7687 423.6 51.4666 412.248 51.4666ZM405.516 39.0304C405.516 44.0505 408.482 46.3894 412.59 46.3894C420.633 46.3894 424.798 37.3761 424.798 30.7016C424.798 25.6815 421.831 23.3425 417.724 23.3425C409.738 23.3425 405.516 32.3559 405.516 39.0304Z" fill="#1E1A28"/>
<path d="M388.672 50.5534C383.081 50.5534 380.743 46.9024 381.826 41.8252L385.477 24.3689H379.316L380.4 19.1776H386.561L388.387 10.6206H394.719L392.894 19.1776H402.591L401.508 24.3689H391.81L388.045 42.1104C387.531 44.5064 388.273 45.3621 390.84 45.3621H397.286L396.145 50.5534H388.672Z" fill="#1E1A28"/>
<path d="M359.856 51.4666C351.756 51.4666 346.679 46.6176 346.679 38.2888C346.679 28.3056 353.809 18.2654 365.732 18.2654C374.175 18.2654 379.195 23.1714 378.34 31.158H371.95C372.635 26.9365 370.638 23.3425 365.447 23.3425C357.403 23.3425 353.125 32.413 353.125 38.8022C353.125 43.9364 355.92 46.3894 359.971 46.3894C365.39 46.3894 368.813 42.2821 370.125 39.2016H376.742C374.403 46.2183 368.413 51.4666 359.856 51.4666Z" fill="#1E1A28"/>
<path d="M334.878 44.3928C331.855 49.5841 327.519 51.4666 323.412 51.4666C317.935 51.4666 313.657 48.0438 313.657 42.1109C313.657 35.7217 318.449 31.6143 326.549 31.6143H332.596C336.932 31.6143 338.13 29.2754 338.13 27.2788C338.13 24.8828 336.59 23.3425 332.711 23.3425C328.204 23.3425 325.294 25.5103 324.439 29.3325H317.65C319.419 22.3157 324.895 18.2654 332.939 18.2654C340.868 18.2654 345.774 22.2587 344.006 30.5304L341.211 43.7082C340.925 44.9062 341.211 45.3626 342.637 45.3626H344.12L343.036 50.5539H338.986C335.449 50.5539 334.137 48.4431 334.764 45.5337L334.992 44.3928H334.878ZM320.046 41.6546C320.046 44.5069 322.214 46.3324 325.58 46.3324C330.315 46.3324 334.992 42.8525 336.533 35.9499L337.16 33.0975H337.046C335.905 35.0942 334.023 36.2922 330.143 36.3492L327.063 36.4063C321.701 36.4633 320.046 39.0875 320.046 41.6546Z" fill="#1E1A28"/>
<path d="M285.008 50.5534L293.508 10.6206H321.632L320.491 15.926H299.042L296.532 27.8487H315.756L314.615 33.1541H295.391L291.683 50.5534H285.008Z" fill="#1E1A28"/>
</svg>
