<svg width="771" height="115" viewBox="0 0 771 115" fill="none" xmlns="http://www.w3.org/2000/svg">
<g clip-path="url(#clip0_8458_4673)">
<path d="M770.999 45.4375H748.148V91.5591H675.234L688.224 104.373C695.038 111.281 701.444 114.464 709.247 114.6H748.826V91.6945H770.999V45.4375Z" fill="#333333"/>
<path d="M445.249 45.4105L432.273 32.6102C425.46 25.7021 419.053 22.519 411.251 22.3835H371.672V45.2886H349.498V114.545H372.349V45.424H445.236V114.518H468.276V79.4226C468.141 71.6341 464.958 65.2136 458.05 58.4004L445.236 45.3969L445.249 45.4105Z" fill="#333333"/>
<path d="M579.89 62.6129H505.337V45.424H577.967V22.3835H538.388C530.599 22.519 524.179 25.7021 517.365 32.6102L504.511 45.2886H482.486V74.7495H579.904V91.4779H507.274V114.518H546.853C554.642 114.383 561.062 111.2 567.876 104.292L580.865 91.4914H602.768V62.6129H579.917H579.89Z" fill="#333333"/>
<path d="M155.273 45.302H203.223V22.2615H187.998C180.21 22.3969 173.789 25.5801 166.976 32.4881L155.273 44.0287V6.30518H132.232V57.5604C132.368 65.3489 135.551 71.7694 142.459 78.5826L155.273 91.5725H155.178L168.182 104.386C174.995 111.294 181.402 114.478 189.204 114.613H204.429V91.5725H155.286V45.302H155.273Z" fill="#333333"/>
<path d="M105.616 22.262C97.8278 22.3974 91.4073 25.5805 84.5941 32.4886L71.6042 45.3024H49.8776L36.8877 32.4886C30.0745 25.5805 23.6675 22.3974 15.8655 22.262H0.640625V45.3024H49.3223V91.5459H72.1731V45.3024H120.855V22.262H105.63H105.616Z" fill="#61C2A3"/>
<path d="M0.640625 114.613H15.8655C23.654 114.478 30.0745 111.295 36.8877 104.387L49.8776 91.5728H0.640625V114.613Z" fill="#61C2A3"/>
<path d="M84.5933 104.387C91.4065 111.295 97.8134 114.478 105.616 114.613H120.84V91.5728H71.5898L84.5797 104.387H84.5933Z" fill="#61C2A3"/>
<path d="M676.128 45.424H749.042L736.039 32.6102C729.225 25.7021 722.819 22.519 715.017 22.3835H675.437V45.2886H653.264V91.5456H676.115V45.424H676.128Z" fill="#333333"/>
<path d="M300.871 32.6102C294.057 25.7021 287.651 22.519 279.849 22.3835H240.269V45.2886H218.096V91.5456H240.947V74.7495H335.736V45.2886H313.712L300.857 32.6102H300.871ZM240.96 62.6129V45.424H312.899V62.6129H240.96Z" fill="#333333"/>
<path d="M253.259 104.387C260.073 111.295 266.48 114.478 274.282 114.613H312.344V91.5728H240.27L253.259 104.387Z" fill="#333333"/>
<path d="M616.461 26.4604V114.518H639.501V60.4726C639.366 52.6841 636.183 46.2636 629.275 39.4503L616.461 26.4604Z" fill="#333333"/>
<path d="M639.827 0.684082H616.543V23.9684H639.827V0.684082Z" fill="#333333"/>
</g>
<defs>
<clipPath id="clip0_8458_4673">
<rect width="770.359" height="113.929" fill="white" transform="translate(0.640625 0.684326)"/>
</clipPath>
</defs>
</svg>
