<svg width="43" height="31" viewBox="0 0 43 31" fill="none" xmlns="http://www.w3.org/2000/svg">
<g clip-path="url(#clip0_8687_4429)">
<path d="M23.6202 24.8086H19.3787V30.4162H23.6202V24.8086Z" fill="#353535"/>
<path d="M23.6202 16.8066H19.3787V21.1549H23.6202V16.8066Z" fill="#353535"/>
<path d="M16.2654 21.7148H12.0238V30.4274H16.2654V21.7148Z" fill="#353535"/>
<path d="M30.9765 21.7148H26.735V30.4274H30.9765V21.7148Z" fill="#353535"/>
<path d="M18.2734 11.822C16.4951 11.822 15.2572 12.2568 14.2329 13.2843L9.02368 18.6922L12.0273 21.7327L21.5002 11.8993L30.973 21.7327L33.9766 18.6922L28.7674 13.2843C27.7462 12.26 26.5052 11.822 24.7269 11.822L21.4907 11.793L18.2734 11.822Z" fill="#353535"/>
<path d="M23.6202 5.58594H19.3787V9.93417H23.6202V5.58594Z" fill="#61C2A3"/>
<path d="M18.2734 0.599301C16.4951 0.599301 15.2572 1.03412 14.2329 2.0616L9.02368 7.46951L12.0273 10.5101L21.5002 0.673382L30.973 10.5068L33.9766 7.46629L28.7674 2.05838C27.7431 1.03412 26.5052 0.59608 24.7269 0.599301L21.4907 0.570312L18.2734 0.599301Z" fill="#61C2A3"/>
<path d="M12.3447 25.4225H12.285V25.3613L12.3447 25.4225Z" fill="#61C2A3"/>
<path d="M40.0096 21.7148H35.7681V30.4274H40.0096V21.7148Z" fill="#61C2A3"/>
<path d="M30.4226 11.7695L39.9959 21.7189L42.9996 18.6816L37.7997 13.2801C36.7786 12.2559 35.5376 11.8146 33.7624 11.8178L30.5043 11.7728H30.4194L30.4226 11.7695Z" fill="#61C2A3"/>
<path d="M2.99037 30.4316H7.23193L7.23193 21.7191H2.99037L2.99037 30.4316Z" fill="#61C2A3"/>
<path d="M12.5802 11.7695L3.0068 21.7189L0 18.6816L5.19984 13.2801C6.22096 12.2559 7.46201 11.8146 9.23718 11.8178L12.4953 11.7728H12.5802V11.7695Z" fill="#61C2A3"/>
</g>
<defs>
<clipPath id="clip0_8687_4429">
<rect width="43" height="29.8611" fill="white" transform="translate(0 0.570312)"/>
</clipPath>
</defs>
</svg>
