<svg width="136" height="159" viewBox="0 0 136 159" fill="none" xmlns="http://www.w3.org/2000/svg">
<g clip-path="url(#clip0_8458_4638)">
<path d="M79.5678 128.688H56.4473V158.504H79.5678V128.688Z" fill="#353535"/>
<path d="M79.5678 86.1284H56.4473V109.249H79.5678V86.1284Z" fill="#353535"/>
<path d="M39.476 112.246H16.3555V158.572H39.476V112.246Z" fill="#353535"/>
<path d="M119.644 112.246H96.5234V158.572H119.644V112.246Z" fill="#353535"/>
<path d="M50.4198 0.154137C40.7264 0.154137 33.9786 2.46619 28.3954 7.92948L0 36.6845L16.3727 52.8518L68.0086 0.548042L119.644 52.8347L136.017 36.6674L107.605 7.91235C102.039 2.46619 95.2736 0.13701 85.5973 0.154137L67.9572 0L50.4198 0.154137Z" fill="#61C2A3"/>
<path d="M50.4198 59.617C40.7264 59.617 33.9786 61.9291 28.3954 67.3924L0 96.1474L16.3727 112.315L68.0086 60.0281L119.644 112.315L136.017 96.1474L107.622 67.3924C102.056 61.9462 95.2908 59.617 85.5973 59.617L67.9572 59.4629L50.4198 59.617Z" fill="#353535"/>
<path d="M79.5678 26.4771H56.4473V49.5976H79.5678V26.4771Z" fill="#61C2A3"/>
<path d="M18.0852 131.941H17.7598V131.616L18.0852 131.941Z" fill="#353535"/>
</g>
<defs>
<clipPath id="clip0_8458_4638">
<rect width="136" height="158.572" fill="white"/>
</clipPath>
</defs>
</svg>
