<svg width="296" height="125" viewBox="0 0 296 125" fill="none" xmlns="http://www.w3.org/2000/svg">
<g clip-path="url(#clip0_8458_4660)">
<path d="M162.095 87.2896H132.984V124.832H162.095V87.2896Z" fill="#353535"/>
<path d="M162.095 33.7261H132.984V62.837H162.095V33.7261Z" fill="#353535"/>
<path d="M111.615 66.6104H82.5039V124.94H111.615V66.6104Z" fill="#353535"/>
<path d="M212.554 66.6104H183.443V124.94H212.554V66.6104Z" fill="#353535"/>
<path d="M125.394 0.345031C113.189 0.345031 104.693 3.25613 97.6628 10.1349L61.9102 46.3404L82.525 66.6965L147.54 0.840996L212.554 66.6749L233.169 46.3188L197.416 10.1134C190.408 3.25613 181.891 0.323468 169.685 0.323468L147.475 0.129395L125.394 0.323468V0.345031Z" fill="#353535"/>
<path d="M49.0796 91.4087H48.6699V90.999L49.0796 91.4087Z" fill="#61C2A3"/>
<path d="M274.57 66.6104H245.459V124.94H274.57V66.6104Z" fill="#61C2A3"/>
<path d="M208.758 0L274.462 66.6102L295.077 46.2757L259.389 10.1134C252.381 3.25612 243.864 0.301892 231.68 0.323455L209.34 0H208.758Z" fill="#61C2A3"/>
<path d="M20.5296 124.94H49.6406L49.6406 66.6102H20.5296L20.5296 124.94Z" fill="#61C2A3"/>
<path d="M86.341 0L20.6149 66.6102L0 46.2757L35.6879 10.1134C42.6961 3.25612 51.1922 0.301892 63.3972 0.301892L85.7588 0H86.341Z" fill="#61C2A3"/>
</g>
<defs>
<clipPath id="clip0_8458_4660">
<rect width="295.099" height="124.94" fill="white"/>
</clipPath>
</defs>
</svg>
