<svg width="290" height="267" viewBox="0 0 290 267" fill="none" xmlns="http://www.w3.org/2000/svg">
<g clip-path="url(#clip0_8458_4761)">
<path d="M286.787 33.7147H259.563C257.785 33.7147 256.35 32.2796 256.35 30.5018V3.21318C256.35 1.43536 257.785 0.000244141 259.563 0.000244141C261.34 0.000244141 262.775 1.43536 262.775 3.21318V27.2888H286.787C288.565 27.2888 290 28.7239 290 30.5018C290 32.2796 288.565 33.7147 286.787 33.7147Z" fill="#353535"/>
<path d="M30.4373 236.622C28.6594 236.622 27.2243 235.187 27.2243 233.409V209.334H3.21294C1.43511 209.334 0 207.899 0 206.121C0 204.343 1.43511 202.908 3.21294 202.908H30.4373C32.2151 202.908 33.6502 204.343 33.6502 206.121V233.409C33.6502 235.187 32.2151 236.622 30.4373 236.622Z" fill="#353535"/>
<path d="M116.544 209.206H30.9297C30.073 209.206 29.259 208.863 28.6593 208.263C28.0595 207.664 27.7168 206.85 27.7168 205.993L27.7811 29.8809C27.7811 28.1031 29.2162 26.668 30.994 26.668H259.348C260.205 26.668 261.019 26.9893 261.619 27.589C262.219 28.1888 262.561 29.0027 262.561 29.8595V128.625C262.561 130.403 261.126 131.838 259.348 131.838C257.571 131.838 256.135 130.403 256.135 128.625V33.0724H34.1855L34.1213 202.78H116.522C118.3 202.78 119.735 204.215 119.735 205.993C119.735 207.771 118.3 209.206 116.522 209.206H116.544Z" fill="#353535"/>
<path d="M159.598 89.2983H130.682V118.215H159.598V89.2983Z" fill="#353535"/>
<path d="M109.454 121.942H80.5371V179.882H109.454V121.942Z" fill="#353535"/>
<path d="M228.162 99.773H195.904C193.376 99.8158 190.913 100.073 188.514 100.544L145.139 56.6339L80.5592 122.028L60.082 101.829L95.6171 65.8443C102.579 59.0329 111.018 56.1198 123.141 56.1413L145.075 55.9485H145.139L167.137 56.1413C179.261 56.1198 187.7 59.0329 194.683 65.8443L228.162 99.773Z" fill="#353535"/>
<path d="M217.001 136.507H163.859V205.05H217.001V136.507Z" fill="#353535"/>
<path d="M273.4 137.728H244.334V204.793H273.4V137.728Z" fill="#353535"/>
<path d="M245.906 203.676L224.959 223.827L266.226 266.725L287.174 246.574L245.906 203.676Z" fill="#61C2A3"/>
<path d="M245.769 137.836V108.876H196.054C186.266 109.048 178.19 113.053 169.644 121.728L153.451 137.707L153.322 137.836H245.769Z" fill="#353535"/>
<path d="M154.691 137.707H125.625V204.793H154.691V137.707Z" fill="#353535"/>
<path d="M245.705 204.772H153.258V233.71H202.973C212.761 233.538 220.837 229.533 229.383 220.858L245.683 204.793H245.705V204.772Z" fill="#353535"/>
<path d="M245.768 137.728V108.876H196.053C186.264 109.048 178.189 113.053 169.642 121.728L153.449 137.707H125.625V204.793H153.256V233.71H202.971C212.76 233.538 220.835 229.533 229.382 220.858L245.682 204.793H273.399V137.728H245.768ZM154.691 204.772V137.836H244.332V204.772H154.691Z" fill="#61C2A3"/>
</g>
<defs>
<clipPath id="clip0_8458_4761">
<rect width="290" height="266.738" fill="white"/>
</clipPath>
</defs>
</svg>
