<svg width="194" height="178" viewBox="0 0 194 178" fill="none" xmlns="http://www.w3.org/2000/svg">
<g clip-path="url(#clip0_8458_4594)">
<path d="M39.0929 149.018L33.2063 160.861C29.9747 167.359 24.0182 172.11 16.9612 173.822L0.611328 177.787L19.7211 139.393" fill="#61C2A3"/>
<path d="M21.7649 21.6602H0V140.232H21.7649V21.6602Z" fill="#61C2A3"/>
<path d="M19.3203 140.371V162.049H144.407C151.744 161.926 157.788 158.922 164.181 152.424L176.408 140.371H19.3203Z" fill="#61C2A3"/>
<path d="M193.474 21.6777H171.709V140.249H193.474V21.6777Z" fill="#61C2A3"/>
<path d="M174.642 21.6775V0H49.7999C42.4634 0.122275 36.4195 3.12674 30.0263 9.62476L17.7988 21.6775H174.66H174.642Z" fill="#61C2A3"/>
<path d="M109.487 108.371H87.582V130.275H109.487V108.371Z" fill="#353535"/>
<path d="M109 78H87V100H109V78Z" fill="#353535"/>
<path d="M108.765 52H87V78.1318H108.765V52Z" fill="#353535"/>
<path d="M109 31H87V52H109V41.5V31Z" fill="#353535"/>
</g>
<defs>
<clipPath id="clip0_8458_4594">
<rect width="193.473" height="177.77" fill="white"/>
</clipPath>
</defs>
</svg>
