<svg width="16" height="6" viewBox="0 0 16 6" fill="none" xmlns="http://www.w3.org/2000/svg">
<path d="M7.56245 4.33101L7.56256 4.33113L7.56259 4.33117L7.94888 4.76849L8.32165 4.31968L8.3217 4.31962L8.32178 4.31952L8.32183 4.31947L8.32293 4.31815L8.32879 4.31119L8.35447 4.28109C8.37771 4.25406 8.41302 4.21349 8.45966 4.16129C8.55296 4.05685 8.69135 3.90614 8.86875 3.7246C9.22414 3.3609 9.73305 2.87655 10.3469 2.3933C11.5935 1.41193 13.1909 0.500665 14.7764 0.500372L14.9888 0.500274L14.9966 0.500282L14.9969 0.500282L14.9975 0.500283L15.0046 0.500271C15.0136 0.500106 15.5 -0.0071076 15.0078 -0.499648L15.0017 -0.499708L14.9986 -0.499716L14.9896 -0.499726L14.9539 -0.499744L14.8117 -0.499778L13.4291 -0.499892L8.24907 -0.499999L2.91306 -0.499921L1.33559 -0.499803L1.02033 -0.499723L0.999395 -0.499698L0.997396 -0.49969L0.984303 -0.499448C0.499982 0.00157253 0.991106 0.500227 0.995475 0.500286L0.998602 0.500306L1.00611 0.500322L1.09792 0.500371C2.57558 0.500887 4.17133 1.4085 5.45252 2.39655C6.08122 2.88141 6.61107 3.3674 6.98383 3.73245C7.16991 3.91469 7.3161 4.06605 7.41509 4.1711C7.46457 4.2236 7.50221 4.26448 7.52708 4.29179L7.5547 4.32232L7.5611 4.32949L7.56241 4.33097L7.56245 4.33101ZM1.00259 0.500297L1.00289 0.500296L1.00259 0.500297Z" fill="white" stroke="#E8E8EC"/>
</svg>
