<svg width="32" height="33" viewBox="0 0 32 33" fill="none" xmlns="http://www.w3.org/2000/svg">
<path d="M16 2.81177C13.0836 2.81508 10.2877 3.97506 8.22548 6.03725C6.1633 8.09943 5.00331 10.8954 5 13.8118C5 23.2243 15 30.333 15.4263 30.6305C15.5944 30.7483 15.7947 30.8115 16 30.8115C16.2053 30.8115 16.4056 30.7483 16.5737 30.6305C17 30.333 27 23.2243 27 13.8118C26.9967 10.8954 25.8367 8.09943 23.7745 6.03725C21.7123 3.97506 18.9164 2.81508 16 2.81177ZM16 9.81177C16.7911 9.81177 17.5645 10.0464 18.2223 10.4859C18.8801 10.9254 19.3928 11.5501 19.6955 12.281C19.9983 13.0119 20.0775 13.8162 19.9231 14.5921C19.7688 15.3681 19.3878 16.0808 18.8284 16.6402C18.269 17.1996 17.5563 17.5806 16.7804 17.7349C16.0044 17.8892 15.2002 17.81 14.4693 17.5073C13.7384 17.2045 13.1136 16.6918 12.6741 16.034C12.2346 15.3763 12 14.6029 12 13.8118C12 12.7509 12.4214 11.7335 13.1716 10.9833C13.9217 10.2332 14.9391 9.81177 16 9.81177Z" fill="black"/>
</svg>
