<svg width="18" height="18" viewBox="0 0 18 18" fill="none" xmlns="http://www.w3.org/2000/svg">
<path d="M9.74243 5.05469L11.1899 7.63469" stroke="white" stroke-width="1.5" stroke-linecap="round" stroke-linejoin="round"/>
<path d="M14.3519 9C13.6538 9.71103 12.821 10.2758 11.9021 10.6614C10.9833 11.0469 9.99678 11.2455 9.00031 11.2455C8.00384 11.2455 7.01736 11.0469 6.0985 10.6614C5.17963 10.2758 4.34681 9.71103 3.64868 9" stroke="white" stroke-width="1.5" stroke-linecap="round" stroke-linejoin="round"/>
<path d="M15.75 15.7511L14.13 12.8711" stroke="white" stroke-width="1.5" stroke-linecap="round" stroke-linejoin="round"/>
<path d="M2.25 15.7497L8.265 5.05469" stroke="white" stroke-width="1.5" stroke-linecap="round" stroke-linejoin="round"/>
<path d="M9 5.25C9.82843 5.25 10.5 4.57843 10.5 3.75C10.5 2.92157 9.82843 2.25 9 2.25C8.17157 2.25 7.5 2.92157 7.5 3.75C7.5 4.57843 8.17157 5.25 9 5.25Z" stroke="white" stroke-width="1.5" stroke-linecap="round" stroke-linejoin="round"/>
</svg>
